<mxfile host="Electron" agent="Mozilla/5.0 (Macintosh; Intel Mac OS X 10_15_7) AppleWebKit/537.36 (KHTML, like Gecko) draw.io/24.7.8 Chrome/128.0.6613.36 Electron/32.0.1 Safari/537.36" version="24.7.8" pages="3">
  <diagram id="c3_HhsALmCw9-ZyM0pY0" name="shattering">
    <mxGraphModel dx="1230" dy="516" grid="1" gridSize="10" guides="1" tooltips="1" connect="1" arrows="1" fold="1" page="1" pageScale="1" pageWidth="850" pageHeight="1100" math="0" shadow="0">
      <root>
        <mxCell id="0" />
        <mxCell id="1" parent="0" />
        <mxCell id="2" value="" style="ellipse;whiteSpace=wrap;html=1;aspect=fixed;fillColor=#dae8fc;strokeColor=#6c8ebf;" parent="1" vertex="1">
          <mxGeometry x="140" y="140" width="30" height="30" as="geometry" />
        </mxCell>
        <mxCell id="3" value="" style="ellipse;whiteSpace=wrap;html=1;aspect=fixed;fillColor=#f8cecc;strokeColor=#b85450;" parent="1" vertex="1">
          <mxGeometry x="89.99999999999999" y="170" width="30" height="30" as="geometry" />
        </mxCell>
        <mxCell id="4" value="" style="ellipse;whiteSpace=wrap;html=1;aspect=fixed;fillColor=#f8cecc;strokeColor=#b85450;" parent="1" vertex="1">
          <mxGeometry x="140" y="200" width="30" height="30" as="geometry" />
        </mxCell>
        <mxCell id="Y4OUbOsOmEJCIthaVdlJ-109" value="" style="group;rotation=35;" parent="1" vertex="1" connectable="0">
          <mxGeometry x="100" y="180" width="80" height="10" as="geometry" />
        </mxCell>
        <mxCell id="Y4OUbOsOmEJCIthaVdlJ-107" value="" style="endArrow=none;html=1;rounded=0;" parent="Y4OUbOsOmEJCIthaVdlJ-109" edge="1">
          <mxGeometry width="50" height="50" relative="1" as="geometry">
            <mxPoint x="76" y="24" as="sourcePoint" />
            <mxPoint x="10" y="-22" as="targetPoint" />
          </mxGeometry>
        </mxCell>
        <mxCell id="Y4OUbOsOmEJCIthaVdlJ-108" value="" style="endArrow=blockThin;html=1;rounded=0;endFill=1;" parent="Y4OUbOsOmEJCIthaVdlJ-109" edge="1">
          <mxGeometry width="50" height="50" relative="1" as="geometry">
            <mxPoint x="43" y="1" as="sourcePoint" />
            <mxPoint x="37" y="9" as="targetPoint" />
          </mxGeometry>
        </mxCell>
        <mxCell id="Y4OUbOsOmEJCIthaVdlJ-110" value="" style="ellipse;whiteSpace=wrap;html=1;aspect=fixed;fillColor=#f8cecc;strokeColor=#b85450;" parent="1" vertex="1">
          <mxGeometry x="140" y="260" width="30" height="30" as="geometry" />
        </mxCell>
        <mxCell id="Y4OUbOsOmEJCIthaVdlJ-111" value="" style="ellipse;whiteSpace=wrap;html=1;aspect=fixed;fillColor=#dae8fc;strokeColor=#6c8ebf;" parent="1" vertex="1">
          <mxGeometry x="90" y="290" width="30" height="30" as="geometry" />
        </mxCell>
        <mxCell id="Y4OUbOsOmEJCIthaVdlJ-112" value="" style="ellipse;whiteSpace=wrap;html=1;aspect=fixed;fillColor=#dae8fc;strokeColor=#6c8ebf;" parent="1" vertex="1">
          <mxGeometry x="140" y="320" width="30" height="30" as="geometry" />
        </mxCell>
        <mxCell id="Y4OUbOsOmEJCIthaVdlJ-113" value="" style="group;rotation=-144;" parent="1" vertex="1" connectable="0">
          <mxGeometry x="104" y="291" width="80" height="10" as="geometry" />
        </mxCell>
        <mxCell id="Y4OUbOsOmEJCIthaVdlJ-114" value="" style="endArrow=none;html=1;rounded=0;" parent="Y4OUbOsOmEJCIthaVdlJ-113" edge="1">
          <mxGeometry width="50" height="50" relative="1" as="geometry">
            <mxPoint x="4" y="-15" as="sourcePoint" />
            <mxPoint x="70" y="33" as="targetPoint" />
          </mxGeometry>
        </mxCell>
        <mxCell id="Y4OUbOsOmEJCIthaVdlJ-115" value="" style="endArrow=blockThin;html=1;rounded=0;endFill=1;" parent="Y4OUbOsOmEJCIthaVdlJ-113" edge="1">
          <mxGeometry width="50" height="50" relative="1" as="geometry">
            <mxPoint x="37" y="9" as="sourcePoint" />
            <mxPoint x="43" y="1" as="targetPoint" />
          </mxGeometry>
        </mxCell>
        <mxCell id="Y4OUbOsOmEJCIthaVdlJ-117" value="" style="ellipse;whiteSpace=wrap;html=1;aspect=fixed;fillColor=#f8cecc;strokeColor=#b85450;" parent="1" vertex="1">
          <mxGeometry x="489" y="140" width="30" height="30" as="geometry" />
        </mxCell>
        <mxCell id="Y4OUbOsOmEJCIthaVdlJ-118" value="" style="ellipse;whiteSpace=wrap;html=1;aspect=fixed;fillColor=#f8cecc;strokeColor=#b85450;" parent="1" vertex="1">
          <mxGeometry x="439" y="170" width="30" height="30" as="geometry" />
        </mxCell>
        <mxCell id="Y4OUbOsOmEJCIthaVdlJ-119" value="" style="ellipse;whiteSpace=wrap;html=1;aspect=fixed;fillColor=#f8cecc;strokeColor=#b85450;" parent="1" vertex="1">
          <mxGeometry x="489" y="200" width="30" height="30" as="geometry" />
        </mxCell>
        <mxCell id="Y4OUbOsOmEJCIthaVdlJ-120" value="" style="group;rotation=90;" parent="1" vertex="1" connectable="0">
          <mxGeometry x="483" y="181" width="80" height="10" as="geometry" />
        </mxCell>
        <mxCell id="Y4OUbOsOmEJCIthaVdlJ-121" value="" style="endArrow=none;html=1;rounded=0;" parent="Y4OUbOsOmEJCIthaVdlJ-120" edge="1">
          <mxGeometry width="50" height="50" relative="1" as="geometry">
            <mxPoint x="45" y="46" as="sourcePoint" />
            <mxPoint x="45" y="-36" as="targetPoint" />
          </mxGeometry>
        </mxCell>
        <mxCell id="Y4OUbOsOmEJCIthaVdlJ-122" value="" style="endArrow=blockThin;html=1;rounded=0;endFill=1;" parent="Y4OUbOsOmEJCIthaVdlJ-120" edge="1">
          <mxGeometry width="50" height="50" relative="1" as="geometry">
            <mxPoint x="45" y="5" as="sourcePoint" />
            <mxPoint x="35" y="5" as="targetPoint" />
          </mxGeometry>
        </mxCell>
        <mxCell id="Y4OUbOsOmEJCIthaVdlJ-123" value="" style="ellipse;whiteSpace=wrap;html=1;aspect=fixed;fillColor=#dae8fc;strokeColor=#6c8ebf;" parent="1" vertex="1">
          <mxGeometry x="491" y="260" width="30" height="30" as="geometry" />
        </mxCell>
        <mxCell id="Y4OUbOsOmEJCIthaVdlJ-124" value="" style="ellipse;whiteSpace=wrap;html=1;aspect=fixed;fillColor=#dae8fc;strokeColor=#6c8ebf;" parent="1" vertex="1">
          <mxGeometry x="441" y="290" width="30" height="30" as="geometry" />
        </mxCell>
        <mxCell id="Y4OUbOsOmEJCIthaVdlJ-125" value="" style="ellipse;whiteSpace=wrap;html=1;aspect=fixed;fillColor=#dae8fc;strokeColor=#6c8ebf;" parent="1" vertex="1">
          <mxGeometry x="491" y="320" width="30" height="30" as="geometry" />
        </mxCell>
        <mxCell id="Y4OUbOsOmEJCIthaVdlJ-126" value="" style="group;rotation=-90;" parent="1" vertex="1" connectable="0">
          <mxGeometry x="495" y="300" width="80" height="10" as="geometry" />
        </mxCell>
        <mxCell id="Y4OUbOsOmEJCIthaVdlJ-127" value="" style="endArrow=none;html=1;rounded=0;" parent="Y4OUbOsOmEJCIthaVdlJ-126" edge="1">
          <mxGeometry width="50" height="50" relative="1" as="geometry">
            <mxPoint x="35" y="-36" as="sourcePoint" />
            <mxPoint x="35" y="46" as="targetPoint" />
          </mxGeometry>
        </mxCell>
        <mxCell id="Y4OUbOsOmEJCIthaVdlJ-128" value="" style="endArrow=blockThin;html=1;rounded=0;endFill=1;" parent="Y4OUbOsOmEJCIthaVdlJ-126" edge="1">
          <mxGeometry width="50" height="50" relative="1" as="geometry">
            <mxPoint x="35" y="5" as="sourcePoint" />
            <mxPoint x="45" y="5" as="targetPoint" />
          </mxGeometry>
        </mxCell>
        <mxCell id="Y4OUbOsOmEJCIthaVdlJ-141" value="" style="ellipse;whiteSpace=wrap;html=1;aspect=fixed;fillColor=#f8cecc;strokeColor=#b85450;" parent="1" vertex="1">
          <mxGeometry x="260" y="140" width="30" height="30" as="geometry" />
        </mxCell>
        <mxCell id="Y4OUbOsOmEJCIthaVdlJ-142" value="" style="ellipse;whiteSpace=wrap;html=1;aspect=fixed;fillColor=#f8cecc;strokeColor=#b85450;" parent="1" vertex="1">
          <mxGeometry x="210" y="170" width="30" height="30" as="geometry" />
        </mxCell>
        <mxCell id="Y4OUbOsOmEJCIthaVdlJ-143" value="" style="ellipse;whiteSpace=wrap;html=1;aspect=fixed;fillColor=#dae8fc;strokeColor=#6c8ebf;" parent="1" vertex="1">
          <mxGeometry x="260" y="200" width="30" height="30" as="geometry" />
        </mxCell>
        <mxCell id="Y4OUbOsOmEJCIthaVdlJ-144" value="" style="group;rotation=-210;" parent="1" vertex="1" connectable="0">
          <mxGeometry x="220" y="190" width="80" height="10" as="geometry" />
        </mxCell>
        <mxCell id="Y4OUbOsOmEJCIthaVdlJ-145" value="" style="endArrow=none;html=1;rounded=0;" parent="Y4OUbOsOmEJCIthaVdlJ-144" edge="1">
          <mxGeometry width="50" height="50" relative="1" as="geometry">
            <mxPoint x="7" y="30" as="sourcePoint" />
            <mxPoint x="77" y="-11" as="targetPoint" />
          </mxGeometry>
        </mxCell>
        <mxCell id="Y4OUbOsOmEJCIthaVdlJ-146" value="" style="endArrow=blockThin;html=1;rounded=0;endFill=1;" parent="Y4OUbOsOmEJCIthaVdlJ-144" edge="1">
          <mxGeometry width="50" height="50" relative="1" as="geometry">
            <mxPoint x="43" y="9" as="sourcePoint" />
            <mxPoint x="38" y="1" as="targetPoint" />
          </mxGeometry>
        </mxCell>
        <mxCell id="Y4OUbOsOmEJCIthaVdlJ-149" value="" style="ellipse;whiteSpace=wrap;html=1;aspect=fixed;fillColor=#dae8fc;strokeColor=#6c8ebf;" parent="1" vertex="1">
          <mxGeometry x="264" y="260" width="30" height="30" as="geometry" />
        </mxCell>
        <mxCell id="Y4OUbOsOmEJCIthaVdlJ-150" value="" style="ellipse;whiteSpace=wrap;html=1;aspect=fixed;fillColor=#dae8fc;strokeColor=#6c8ebf;" parent="1" vertex="1">
          <mxGeometry x="214" y="290" width="30" height="30" as="geometry" />
        </mxCell>
        <mxCell id="Y4OUbOsOmEJCIthaVdlJ-151" value="" style="ellipse;whiteSpace=wrap;html=1;aspect=fixed;fillColor=#f8cecc;strokeColor=#b85450;" parent="1" vertex="1">
          <mxGeometry x="264" y="320" width="30" height="30" as="geometry" />
        </mxCell>
        <mxCell id="Y4OUbOsOmEJCIthaVdlJ-152" value="" style="group;rotation=-30;" parent="1" vertex="1" connectable="0">
          <mxGeometry x="224" y="310" width="80" height="10" as="geometry" />
        </mxCell>
        <mxCell id="Y4OUbOsOmEJCIthaVdlJ-153" value="" style="endArrow=none;html=1;rounded=0;" parent="Y4OUbOsOmEJCIthaVdlJ-152" edge="1">
          <mxGeometry width="50" height="50" relative="1" as="geometry">
            <mxPoint x="73" y="-20" as="sourcePoint" />
            <mxPoint x="3" y="21" as="targetPoint" />
          </mxGeometry>
        </mxCell>
        <mxCell id="Y4OUbOsOmEJCIthaVdlJ-154" value="" style="endArrow=blockThin;html=1;rounded=0;endFill=1;" parent="Y4OUbOsOmEJCIthaVdlJ-152" edge="1">
          <mxGeometry width="50" height="50" relative="1" as="geometry">
            <mxPoint x="37" y="1" as="sourcePoint" />
            <mxPoint x="42" y="9" as="targetPoint" />
          </mxGeometry>
        </mxCell>
        <mxCell id="Y4OUbOsOmEJCIthaVdlJ-155" value="" style="ellipse;whiteSpace=wrap;html=1;aspect=fixed;fillColor=#f8cecc;strokeColor=#b85450;" parent="1" vertex="1">
          <mxGeometry x="381" y="140" width="30" height="30" as="geometry" />
        </mxCell>
        <mxCell id="Y4OUbOsOmEJCIthaVdlJ-156" value="" style="ellipse;whiteSpace=wrap;html=1;aspect=fixed;fillColor=#dae8fc;strokeColor=#6c8ebf;" parent="1" vertex="1">
          <mxGeometry x="331" y="170" width="30" height="30" as="geometry" />
        </mxCell>
        <mxCell id="Y4OUbOsOmEJCIthaVdlJ-157" value="" style="ellipse;whiteSpace=wrap;html=1;aspect=fixed;fillColor=#f8cecc;strokeColor=#b85450;" parent="1" vertex="1">
          <mxGeometry x="381" y="200" width="30" height="30" as="geometry" />
        </mxCell>
        <mxCell id="Y4OUbOsOmEJCIthaVdlJ-161" value="" style="ellipse;whiteSpace=wrap;html=1;aspect=fixed;fillColor=#dae8fc;strokeColor=#6c8ebf;" parent="1" vertex="1">
          <mxGeometry x="385" y="260" width="30" height="30" as="geometry" />
        </mxCell>
        <mxCell id="Y4OUbOsOmEJCIthaVdlJ-162" value="" style="ellipse;whiteSpace=wrap;html=1;aspect=fixed;fillColor=#f8cecc;strokeColor=#b85450;" parent="1" vertex="1">
          <mxGeometry x="335" y="290" width="30" height="30" as="geometry" />
        </mxCell>
        <mxCell id="Y4OUbOsOmEJCIthaVdlJ-163" value="" style="ellipse;whiteSpace=wrap;html=1;aspect=fixed;fillColor=#dae8fc;strokeColor=#6c8ebf;" parent="1" vertex="1">
          <mxGeometry x="385" y="320" width="30" height="30" as="geometry" />
        </mxCell>
        <mxCell id="Y4OUbOsOmEJCIthaVdlJ-167" value="" style="group;rotation=-90;" parent="1" vertex="1" connectable="0">
          <mxGeometry x="340" y="180" width="80" height="10" as="geometry" />
        </mxCell>
        <mxCell id="Y4OUbOsOmEJCIthaVdlJ-168" value="" style="endArrow=none;html=1;rounded=0;" parent="Y4OUbOsOmEJCIthaVdlJ-167" edge="1">
          <mxGeometry width="50" height="50" relative="1" as="geometry">
            <mxPoint x="35" y="-36" as="sourcePoint" />
            <mxPoint x="35" y="46" as="targetPoint" />
          </mxGeometry>
        </mxCell>
        <mxCell id="Y4OUbOsOmEJCIthaVdlJ-169" value="" style="endArrow=blockThin;html=1;rounded=0;endFill=1;" parent="Y4OUbOsOmEJCIthaVdlJ-167" edge="1">
          <mxGeometry width="50" height="50" relative="1" as="geometry">
            <mxPoint x="35" y="5" as="sourcePoint" />
            <mxPoint x="45" y="5" as="targetPoint" />
          </mxGeometry>
        </mxCell>
        <mxCell id="Y4OUbOsOmEJCIthaVdlJ-170" value="" style="group;rotation=90;" parent="1" vertex="1" connectable="0">
          <mxGeometry x="334" y="300" width="80" height="10" as="geometry" />
        </mxCell>
        <mxCell id="Y4OUbOsOmEJCIthaVdlJ-171" value="" style="endArrow=none;html=1;rounded=0;" parent="Y4OUbOsOmEJCIthaVdlJ-170" edge="1">
          <mxGeometry width="50" height="50" relative="1" as="geometry">
            <mxPoint x="45" y="46" as="sourcePoint" />
            <mxPoint x="45" y="-36" as="targetPoint" />
          </mxGeometry>
        </mxCell>
        <mxCell id="Y4OUbOsOmEJCIthaVdlJ-172" value="" style="endArrow=blockThin;html=1;rounded=0;endFill=1;" parent="Y4OUbOsOmEJCIthaVdlJ-170" edge="1">
          <mxGeometry width="50" height="50" relative="1" as="geometry">
            <mxPoint x="45" y="5" as="sourcePoint" />
            <mxPoint x="35" y="5" as="targetPoint" />
          </mxGeometry>
        </mxCell>
      </root>
    </mxGraphModel>
  </diagram>
  <diagram id="qjQ9b4Qs0562Rdr8wchj" name="double_descent">
    <mxGraphModel dx="937" dy="566" grid="1" gridSize="10" guides="1" tooltips="1" connect="1" arrows="1" fold="1" page="1" pageScale="1" pageWidth="1169" pageHeight="827" math="0" shadow="0">
      <root>
        <mxCell id="0" />
        <mxCell id="1" parent="0" />
        <mxCell id="RHRyWqg5JXPaywLJchGg-10" value="" style="shape=image;verticalLabelPosition=bottom;labelBackgroundColor=default;verticalAlign=top;aspect=fixed;imageAspect=0;image=data:image/png,iVBORw0KGgoAAAANSUhEUgAAAvAAAAG5CAYAAADoGQBDAAAAAXNSR0IB2cksfwAAAAlwSFlzAAAXEgAAFxIBZ5/SUgAAgrJJREFUeJzs3Qd8U+UaBvAnTUc6obRlt5S9ZJU9SlliFVRAQARlyBIUFFBR2cuKA1BBpkwFGQKCoJRlWV2ATNmr7NmW0jbdN+dwO9KkK21zkpPnf3+9Jt93cvLS+eTkG4o0DRARERERkTlIUzDAExERERGZDQZ4IiIiIiIzwgBPRERERGRGGOCJiIiIiMwIAzwRERERkRlhgCciIiIiMiMM8EREREREZoQBnoiIiIjIjDDAExERERGZEQZ4IiIiIiIzwgBPRERERGRGGOCJiIiIiMwIAzwRERERkRlhgCciIiIiMiMM8EREREREZoQBnoiIiIjIjFh2gFer1QgICMC6desQERGBUqVKwd/fH9OnT0fFihXzdY6VK1di0KBBeR63atUq9O/fv7AlExEREZFls9wAL4T3jh074siRIyhXrhx8fX1x/fp1hIWFwcPDA8HBwahatWqe5zl06BCWLVumty86Ohpbt24Vb1+5cgVVqlQp0n8DEREREVkcyw3wkydPxowZM9CyZUsEBgbCyclJbJ8zZw7GjRuHtm3bIigoqFDPsXDhQowcORKtW7cWgz4RERERUSFZZoBPSkpC6dKlERUVhePHj6NRo0Za/Q0aNMCpU6dw9OhRNG7c2ODnEYK7cIV/0aJFGD58eGHLJiIiIiKyzAC/f/9+dOjQQRwic/nyZZ1+4cq8cIV+ypQpmDp1qkHPce3aNXHIjK2tLe7duwdXV9dCVk1EREREZKEBft68eRgzZgx69eqFDRs26PTv2LEDXbt2Rbdu3bBlyxaDniP9RUD37t2xefPmwpZMRERERCSwzAA/duxYzJ07Vwzxwpj37E6ePImGDRvCx8cHx44dM+g5atWqhQsXLojhXQjxRERERERFwDID/LBhw7B06VJMmDABM2fO1OkXhtVUr14dNWrUEEN4QQkr2TRv3lwcNiMMnxGG0eQlISFB/EiXmpqKJ0+ewM3NDQqFosA1EBEREZHpEaJ3TEwMypcvDysrK4NOYZEBfujQoeLSjxMnThSHumR36dIlMbwbGuBHjx6NH3/8Ee+99564Ek1+CGPtp02bVuDnIiIiIiLzIlycFfYgyu++Q9lYZoAvziE0ycnJqFChAh48eIDDhw+jVatW+Xpc9ivwwhryXl5ekOrLE/fkMh6fmIVU9QOdPiv7CijfZh6UNg4SVEZERERk3oQr75GRkShRooQhD7fMAF+ck1h37tyJLl26iCvQCJs3Gerp06fiF1XqL09yzGU8Oz0DaUnROn1K5+pw8flGgqqIiIiIzJcQ4IXlzF1cXAx5uGUG+PwuIyl8FHRYS9++fbFu3TqDHpuVqQT4dPE3NkB9cyuQEqfTZ+3aEM71pxq/KCIiIiIzxABvgMTERHEjJ2GYSm4bOQmTUZs2bZrv8z579gxlypRBXFwcLl68KE6ENZSpBfh0cVdWIOH2Ts23TpJOn41HazjV+USCqoiIiIjMBwO8gYQJrLNmzRLHqAcGBsLR0VFsF8bEjxs3Dm3atMHBgwczjp8/f774ISwJGRAQoPecq1evxoABA9CiRQsEBwcXqj5TDfDpYi/8iMR7+zW3UrP1WMG23ItwrDFCirKIiIiITB4DvIHUajXatWuH0NBQlCtXDr6+vrhx44Z4X1i6MSQkBNWqVcs4Pn2VGCGgr1y5Uu85O3fujN27d2PBggUYOXJkoeoz9QCf7tnZr5D0KES3w8oWdhW6wqFKf+MXRURERGTCGOALIT4+XryavnbtWty8eVNct93f318cA+/p6al1bF4B/u7du+JjhC+IcFt4EVAY5hLg08WcnITkqNM67QprR6g834DKq4cEVRERERGZHgZ4mTK3AJ/u6bGxSHl2VaddYesKl0Zfw0rlIUFVRERERKaDAV6mzDXAp4sOG4HU+Ls67Vb25VGi2U8SVERERERkGhjgZcrcA7wgVf0QT//9FGmJkTp9SqcqcGmsu4kWERERkdwxwMuUHAJ8OnXEZqhv/o605FidPuuS9eDcYIYEVRERERFJgwFepuQU4NPFXV2NhNt/AqmJOn027i3gVPczCaoiIiIiMi4GeJmSY4BPF3txIRLv7obeNeTLtodjzVFSlEVERERkFAzwMiXnAJ/u2X/fIOnhYd0OhQ3sKrwCh6qDjF8UERERUTFjgJcpSwjw6WJOTUVy5AndDqUDVJ7dYF+pt/GLIiIiIiomDPAyZUkBPt3T458gJeaSTrvCpiSc6k2EtXM1PY8iIiIiMi8M8DJliQE+XXTY+0iNv63TbqUqgxLNF0tQEREREVHRYYCXKUsO8IK0pBhEH/sIaQmPdfqUjt5waTJPgqqIiIiICo8BXqYsPcCnU9/cCnWEsIZ8jE6fdYk6cG74pQRVERERERmOAV6mGOC1xV/7Fepb24DUBJ0+G7dmcHrhCwmqIiIiKpzIoG5Sl5CFAq5+W6QuwiIwwMsUA7x+cZeWIOHuLs23bkq2HgVsy7SDY60PJamLiIjIEAzwlokBXqYY4HMXe24OEh8c0O1QWMOu4mtwqNLf+EUREREVEAO8ZWKAlykG+PyJOT0DyU+O6bQrbErAxedbWKk8JKiKiIiIKGcM8DLFAF8wT/8dj5SnF3TarRy9UKLJDxJURERERKQfA7xMMcAbJjp0OFLV93XarUv5wLneZAkqIiIiItLGAC9TDPCGE5aejL+xAUiJy9ZjBbvy/nCoPkySuoiIiIgEDPAyxQBfeHGXFiHhTqDmVqpWu0LpAFWl3lB5mtLEISIiIrIUDPAyxQBfdGJOTUdy5HGdditVWZRovkiCioiIiMiSMcDLFAN80YsOH4XUuJs67dYl6sK54SwJKiIiIiJLxAAvUwzwxSMlNgIxJyciLelpth5uBEVERETGwQAvUwzwxSvuykok3P5T8yOQrN1hZQeVZ3fYe/eRpjAiIiKSPQZ4mWKAN45nZ2cj6VGwTrvC1g0lWy4Tbhm/KCIiIpI1BniZYoA3rqfHP0ZKzGWddqVzNXFHVyIiIqKiwgAvUwzwUkhDVPAQpCU+1umxcW8Jp7rjJaiJiIiI5IYBXqYY4KUTf3091Dc3A6kJ2h0Ka9hV6AqHqgOlKIuIiIhkggFephjgpRd7/nsk3t+v066wcYFzg5lQOnpJUBURERGZOwZ4mWKANx0xJyYgOfqsTruVgydKNP1RgoqIiIjInDHAyxQDvOmJDh2OVPV9nXYrBy8415sEK5WHBFURERGRuWGAlykGeNOkvrkV6hsbkJYSp9OnsHaCbbkX4VBlgASVERERkblggJcpBnjTFndpMRLuBmp+hFL09FrBxr0FnOp+avS6iIiIyPQxwMsUA7x5iL+6RgzyackxevuVTlXg4vMNoFAauTIiIiIyVQzwMsUAb17SkmIQc3IiUmJv6O1X2JSAXXl/2Hu/ZeTKiIiIyNQwwMsUA7z5enbmSyQ9DoewMZQOhTVsPVrDsfYYo9dFRESmp8WkyVKXkEGh+QieMV3qMiwCA7xMMcCbv7jLy5Fwbw+gZ8KrQOlSCy6NvjJyVUREZEoY4C0TA7xMMcDLR3LMZcSem4PU+Dt6+xV2brAr/zLsvXoauTIiIpIaA7xlYoCXKQZ4eYo5NQ3Jkf/q77SyhW2ZdnCsMdK4RREREZFRMcDLFAO8vInLUN7bB6Qm6HYqrGFXrhMcqr9n/MKIiIio2DHAF4JarUZAQADWrVuHiIgIlCpVCv7+/pg+fToqVqxY4PNdvnwZs2fPxu7du3Hv3j04OzujevXq6N69Oz755JMCnYsB3jIIG0Ml3NmJVPUD3U6FDezKvwSHakOMXxgREREVGwZ4AwnhvWPHjjhy5AjKlSsHX19fXL9+HWFhYfDw8EBwcDCqVq2a7/Nt2bIFffv2RUJCAho1aoQaNWrg8ePHOH36NBwdHcVwXxAM8Jbn6fFPkBJzSbfDylYT5F+BQ9WBxi6JiIiIigEDvIEmT56MGTNmoGXLlggMDISTk5PYPmfOHIwbNw5t27ZFUFBQvs518uRJNGvWTLzivnXrVrRp0yajLzU1FcePH0eTJk0KVB8DvOV6emwsUp5d1e1QqqCq0BX2ld82flFERERUZBjgDZCUlITSpUuLnzghXAtXzLNq0KABTp06haNHj6Jx48Z5nk8I+wcPHsT27dvRtWvXIqmRAZ6ij45GamyEbofSAaqKr8Heu4/xiyIiIqJCY4A3wP79+9GhQwdxiIy+oS3ClXnhCv2UKVMwderUXM917tw51KlTRxwyc+HChSKrkQGe0kWHf4DUuFs67QprJ9h5duPyk0RERGaGAd4A8+bNw5gxY9CrVy9s2LBBp3/Hjh3ilfRu3bqJY9tzM3/+fIwaNQrvv/8+vv32W6xfv168cq9QKFC/fn307t3boC8OAzxpS0N06Aikqu/p9ChsSkDl2V3z0U2CuoiIiKigGOANMHbsWMydO1cM8cKY9+yEMe0NGzaEj48Pjh07luu5RowYgUWLFuHjjz8Wh9Bkvwrv7u6O33//XRxmUxAM8KRPWlKMOEY+NeGhTp/C1hUujefASvNfIiIiMl0M8AYYNmwYli5digkTJmDmzJk6/cKwGmH5x/wMi+nTp4941d3a2hqurq5YvHixODzn/v37mDZtGtauXSu2nz17VlztJifC6jXCRzohwHt6ejLAk14psRHiplBpiY91+pROVcQgT0RERKaJAd4AQ4cOxbJlyzBx4kRxvHt2ly5dEsN7fgK8MAxn06ZN4u1du3ahc+fOWv3C6jTh4eE5vlhIJ4y1FwJ/dhb45aECSHoUitiLC5GWFKXTZ1vaD461x0hQFREREeWGAd4ARTmE5t1338WKFStQoUIF3LqlO9Fw4cKFGDlyJFq3bo1Dhw7leB5egafCUEf8jviIjUCKWrvDSgX7Sr2h8uohTWFERESkgwHeAEU5iVXYtVVYraZVq1Y4fPiwTv9ff/2FV155RRySc/HixXzXyDHwZIjY8/OQeP8fnXYr+/Io0ewn4xdEREREOhjgDZDfZSSFD33DWrISJq6+9tprqFWrlrikZHa//PIL3nnnHXGteWHN+fxigKfCyGkzKJtSTeBUb6IEFREREVE6BngDJCYmihs5RUdH57qRU1hYGJo2bZrrueLi4sRzCee8cuWKOOwlqyFDhuDnn3/G4MGDxXH3+cUAT4UlrFgTHf6+5r9PtTsU1rCr+BocqvSXpjAiIiILxwBvIGEC66xZs8ShL4GBgXB0dBTbhTHx48aNQ5s2bcTdVdMJ670LH927d0dAQIDWuT7//HN89dVX6NKli7giTfq5/v77b7z66qtISUlBSEiIOKE1vxjgqajEXV6GhNs7NbdStdqFZSdLtlwu3JKkLiIiIkvFAG8gtVqNdu3aITQ0VFze0dfXFzdu3BDvu7m5iYG7WrVqGcenrxIzYMAArFy5UudcnTp1EsfAC+dq3rw5Hjx4IJ4jNTVVfKHwxRdfFKg+BngqajEnJyE56rROO5edJCIiMi4G+EKIj48Xr6YLa7XfvHlTXK/d399fHAOffShMbgFeIAyhEXZiFca8X716FSqVCk2aNBEnywpX5guKAZ6KS3TIUL0bQVm7NoRz/anGL4iIiMjCMMDLFAM8Faf4679BfXMzkJqYrUcB29JtuX48ERFRMWKAlykGeDKG2AsLkHhvL7KPjxcnulZ4BQ5V35WkLiIiIjljgJcpBngypmdnvkTS4zCddoXSASqvntwIioiIqAgxwMsUAzxJ4em/45Hy9IJOu8LWDXZlO8C+cj8JqiIikq8lHfpKXUImBTBs71qpq7AIDPAyxQBPUooOex+p8bdzOcIKVqrSUDp6wsrBEw5CsFcojVYfEZFcMMBbJgZ4mWKAJ6mlqh/i6b+fIi0xMt+PUdi4oGSr1cVYFRGRvDDAWyYGeJligCdTEX9jIxIfBCE17g50JrvmwK68Pxyqv1e8hREREZkpBniZYoAnUxZ/fR1S4m5pPm4+D/ZpyTrHKB294dJkngTVERERmTYGeJligCdzE3/tV6gjNmluZfmetVLB1fc3yWoiIiIyRQzwMsUAT+Yq6shApCVFabXZlu0Ix5qjJKqIiIjItDDAyxQDPJmzmJOTkRx1SqtNWK2mRNMfJaqIiIjIdDDAyxQDPJm7+BsboL4uDJ/JMvHVyhZ25V6CQ7XBktVFREQkNQZ4mWKAJ7mICn4XaYlPsrVawcajFZzqfCxJTURERFJigJcpBniSk5jT05H85LjePusSdeDc8EsjV0RERCQdBniZYoAnOXp6bCxSnl3V22dlXx4lmv1k5IqIiIiMjwFephjgSc6enZ6JpCdH9fapvPvBvlIvI1dERERkPAzwMsUAT5Yg9sICJN7/R/OrKEmr3ba0Hxxrj5GmKCIiomLGAC9TDPBkSeIuLUHCnZ1abUrnGnDx+VqiioiIiIoPA7xMMcCTpUlLTUTUob6aG8kZbQo7d5RssUzCqoiIiIoeA7xMMcCTpYo6/I4mw8dkNlip4Or7m3QFERERFTEGeJligCdLFh0+CqlxN7XaOC6eiIjkggFeptIDfONPPoW1nZ3Rnres5jlfrF8P73fubLTnJNIn5vQMJD85pt2osIZdhS5wqDpImqKIiIiKAAO8TEkV4LOqVqYMXmpQH+/4+kry/ERxV5Yj4dY2nXaFtSNUXr2g8uwmQVVERESFwwAvU6YQ4NMpFAo08q6EN1u0gF+dOpLWQpbp6b/jkfL0gk67lZ0HSrRYKkFFREREhmOAl6n0AL92/z9wcnYu0GNT0lINe864OOw9exYX7tzN8Rhba2u0rlEDAW/1Meg5iAojOmwkUuPv6LTbuDWD0wtfSFARERFRwTHAy5TUk1gX7dmDXSdP4a7mmysnzioVOrxQF5+//roRKyNLlxIbgZiTk5CWFK3dYaWCvXcfDqshIiKTxwAvU1IH+HTqpCT88Pff2HP6DJ7Gx+d4XBlNrZ05+ZWMKO7qqufj49NStNqVjt5waTJPoqqIiIjyxgAvU6YS4LO6/vAhlu7bj0PnzyMhOTnH4zj5lYwpp/HxtmU7wbHmBxJURERElDsGeJkyxQCf1b6zZ7ElPBzHrl5Dag41cvIrGUuq+iGeHvsIacmxWu3CajVO9afB2rmaRJURERHpYoCXKVMP8FmtPXwYu06dynPya6saNfAVJ79SMYo9NweJDw7otCudKsOl8VwJKiIiItLFAC9T5hTgs+LkVzIF0eGjkRoXodNupSoD2zLtxcmuREREUmGAlylzDfDpOPmVpJZwPwhxlxYDKXF6+61L1IVzw1lGroqIiIgBXrbMPcBnJUx+XbZvPw5y8itJIPb890jUhHlA3/4ICthXfgcqrx7GLouIiCwYA7xMySnAZ8XJryQVdcRmJNzfh9S4Wzp9wrAax1ofSlAVERFZIgZ4mZJrgM+Kk19JKs+vyu/XalO61IZLowCJKiIiIkvCAC9TlhDgs+LkVzK2tKQYRAUP1NoIysrOAyVaLJWuKCIisggM8DJlaQE+HSe/krFFHX4HackxmQ0KG5RsuVzzH2fpiiIiIlljgJcpSw3wWXHyKxlLdPgHOmPjbct0gGOt0RJVREREcsYAL1MM8NryO/m1VfXq+O6dt41cHcnBszMBSHocqtWmdPSGS5N5ElVERERyxQBfCGq1GgEBAVi3bh0iIiJQqlQp+Pv7Y/r06ahYsWK+z+Pt7Y0bN27k2H/u3DnUqlWrQLUxwOcsr8mvjnZ2WPHecHi5uxu5MjJ36ptbEX91NbIvOSmMjbct1wn2ld6UpjAiIpIVBngDCeG9Y8eOOHLkCMqVKwdfX19cv34dYWFh8PDwQHBwMKpWrZqvc6UH+AEDBujtF14kCM9REAzw+ZPb5NeOdetiVh8GLiq4qOBBSEuM1O1QWKNkyxUcH09ERIXCAG+gyZMnY8aMGWjZsiUCAwPh5OQkts+ZMwfjxo1D27ZtERQUlK9zpQf4ovxUMsAXjDD5ddTKlTgdcVOr3d3ZGX9++olEVZE5e/bfd0h6dERrlZrnrODqt1mSmoiISB4Y4A2QpAl7pUuXFj9xx48fR6NGjbT6GzRogFOnTuHo0aNo3LhxnudjgDcdK/4JwrL9+5GSqj0EoleL5hjXpYtEVZE5EzeAurcHqfF3MhuVjnBt86t0RRERkVljgDfAfk3A69ChgzhE5vLlyzr9wpV54Qr9lClTMHXq1DzPxwBvWoTPWZ8ffsSNR4+02iu5u2P9h1xVhAwTe/EnJN4NzLhvpSqLEs0XSVgRERGZKwZ4A8ybNw9jxoxBr169sGHDBp3+HTt2oGvXrujWrRu2bNmS5/nSA/zXX3+NK1euwM7ODnXr1kX37t3F8fSGYIAvvO80X8eNIdlWFdH8wAzt0B4D/fwkqorMWczJSUiOOp1xX+lSEy6NZktYERERmSMGeAOMHTsWc+fOFUO8MOY9u5MnT6Jhw4bw8fHBsWPH8jxfTqvQODg44IcffsDgwYMLXCMDfNG4p/nhGLJkKR7FxGi11/PyxNKhQyWqisxZdNhI7eE0eL7cpG0ZP6g8u0tUFRERmRMGeAMMGzYMS5cuxYQJEzBz5kydfmFYTfXq1VGjRg1cuHAhz/ONHj0a7du3F8fLC1fcr169iuXLl+P7779HSkqKeBVfuJqfm4SEBPEjnRDgPT09GeCLyBe/rRfXks/KwdYWAW/1QfNq1SSqisxV1OG3kZb8TE+PAtYl68G5/hTNTaXR6yIiIvPAAG+AoUOHYtmyZZg4caI43j27S5cuieE9vwE+J0uWLMHw4cPzdR5hrP20adN02i3wy1NsDp0/jymbfkdslhdKAr/atTG771sSVUXm6unxT5AScynHfoWNC0q2Wm3EioiIyFwwwBugqIfQ5CQ1NVVc//3BgwfiVfnKlSvneCyvwBvPiJ9/xr/XtYc8uTo64q/PxktUEZmz+Gu/IvH+P0hNeKin1wr2VfpD5Zn7O3BERGRZGOANUNSTWHPTqlUrcVOow4cPi7fzi2Pgi9eaQ4eweM9eJKdor/HdvWkTjH/tNYmqInMXe3EBkh4cRlpKnFa7bWk/ONYeI1FVRERkahjgDZDfZSSFD33DWgqidu3aOH/+vHhVv379+vl+HAO8cfT7cT6uPHig1VaxVClsGvORRBWRHMRdWoSEO39rtSns3FCyxc8SVURERKaEAd4AiYmJ4kZO0dHRuW7kFBYWhqZNmxr8PGfPnkW9evVgb2+PyMhI2Nra5vuxDPDG8/1ff2PdkSNabcJykwP92mKo5oUekSFS1Q8RHfaezk6u4iTXBrpzb4iIyHIwwBtImMA6a9YscVhLYGAgHB0dxXZhTPy4cePQpk0bHDx4MOP4+fPnix/C2u4BAQEZ7bt27YK7u7vOjq3CC4A+ffrg3Llz4io1woo0BcEAb1yRsbEYuHAR7mte1GVVp2IFLB8+XKKqSA6iQ4bqjI9X2LmjZItlElVERERSY4A3kFqtRrt27RAaGipONPX19RXXchfuu7m5ISQkBNWyLC+YvkrMgAEDsHLlSp32SpUqiUNyhGUkr127Jl7ZT05Ohp+fH3bu3CmuCV8QDPDSmLJxE3ZpXnxlpbKxwWh/f/RoZvi7MWTZhImu6ptbNL9ykzPaFLZuKNmSQ2qIiCwRA3whxMfHi1fT165di5s3b8LV1RX+mqAmjIEXVoDJKqcAL0xQFZakDA8Px507d8RhOcIXQxjv3q9fPwwaNAhKZcHXg2aAl85xzQuw8WvXIUbzIi+rVjWqY84770hUFcnB06MfIiU2cwUkha2rJsSvkLAiIiKSAgO8TDHAS++DFStx9OpVrbaSDg74+/PPJKqI5ODpsTFIeXYts0FpD9c266QriIiIjI4BXqYY4E3D+uBgLAjcjcTkZK32rj6NMLF7d4mqInP39NhYTYjP+uJQAbsKr8KmZF1Yl6gDhY2zZLUREVHxY4CXKQZ409J/wU+4eO+eVlt5V1dsHsu1vckwMSenIDnqpP5OK1u4+uruUUFERPLAAC9TDPCm56fA3eIGUNm/JhwbT4aKu7wUCbd35NhvW64zFEp7pKrvw9q5BlRePYxYHRERFRcGeJligDdNsQkJeHv+AtzV/NBl94JnRSwbNkyCqsicpSXFIPrYGKQlPMrzWJV3P9hX6mWEqoiIqDgxwMsUA7xpm7F5C3b8+6/evkru7hj5Yif41alj5KpIDuKvr4f6Rg6TWhU2cG270bgFERFRkWOAlykGePMwYf0G7D97Fql6vk7uzs54s2ULvOPrK0FlZO6iDvdDWnKsJrRba60fr3SuDhefbySsjIiICosBXqYY4M3L7G3bxSvy2VerETja2YmbQL3fubMElZEcxJyegeQnxzLu25btCMeaoySsiIiICoMBXqYY4M3Toj178HtomM4mUAIbpRIvN2yIL7q9LkFlZO4iD/UFUuIy7iusneFYZwxsXH0krIqIiAzBAC9TDPDmbd2RI1h3+AgeaL6O2SkUCvjVro2v3uojQWVkvtIQGaS794CVQ0U4VHuXQZ6IyIwwwMsUA7w87Dt7Fkv37sO1hw/19jfy9sbCwe8auSoyZ9FhI5EafyfHfoWtK2w9WmtC/RAjVkVERAXBAC9TDPDyEvHoEWZt3YqTNyL09lctUwYBfd6El7u7kSsjc5RwPwjxl5c8n+SaIwVs3JrB6YXPjVYXERHlDwO8TDHAy1NCUhImbtiIg+fP6+2v4OqK37m7K+WTuBHU3b1Aqu6ci3RKp6pwafydEasiIqK8MMDLFAO8/M3csgV/nzyF5JQUnb72deoggGPkqYCSYy6LoT7l6QWtdle/rRJVRERE+jDAyxQDvOX48e9d2BIejrjERK12B1tbDO/UEW+2bClRZWTOIg/0ErZ5FW8rnWvCxWe2xBUREVE6BniZYoC3PPP++gsbgkN0NoWqWb4cVo0YIVFVZK5iLy5C4t2/tdqULrXh0ihAooqIiCgdA7xMMcBbrncXL8Z/t25rtQlLT77RrBk+7tpFoqrIHEUG9dD8f6p2o8Iarm03SVIPERE9xwAvUwzwlm1TaBgW7t6N2IQErXZ3Z2ds+OhDcXgNUV5iz81F4oMgvX125V9B0pOjSFU/YKgnIjIyBniZYoAnwaQNG7H79Gmd9hbVq2Fe//4SVETm5umxsUiJjYCVXannYT0HCpuSKNlqpfEKIyKyYAzwMsUAT+nuaX7A31++ArcjI7Xa7aytMaidHwb6+UlUGZmbuCsrkXAr5xVpOEaeiMg4GOBligGeslu8Zy/WHDqks+ykt4cHfhs9SqKqyBxFBQ9GWuJjvX1W9uVQotlCI1dERGRZGOBligGecjLi5+X49/p1nfYujRphUo/uxi+IzFJaaiIUVs/nUkQd7qe9q6tCCZVnd9hXflui6oiI5I0BXqYY4Ck3+86exext2xEdF6fVzp1cyVDRocORqr6v1Wbj1hxOL3wuUUVERPLFAC9TDPCUH7O2bsX2Y8e12pxUKuyZ8IVEFZE5e3bmSyQ9DtNqU7rUgkujrxB3aQkS7u0BUpPgUOsj2JXh3AsiIkMxwMsUAzzll7DU5MCFi3DzceaYZqXmF8OPAwfCp7K3ZHWR+Yo8+KYmqCfkfICVHVx91xuvICIimWGAlykGeCoofWPjB/n5YXinjtIURGYt8tBbQEp8rseoKr8Ne6+eRqqIiEg+GOBligGeDDFt0+/46+RJrbbO9epheu9eElVE5izmxEQkR5/J9RjrUj5wrjfZSBUREckDA7xMMcCToX7evx9L9+3Xamvg5YXFQ4dIVBHJSWRQN502u4qvI+H2Ts2flCRYOXrB1q0F0lLioHSuzrHyRER6MMDLFAM8FUbQufOYuH49krKsGe9ZqhQ2jvlIwqpIDp6d/QpJj0LyfbyVgxdKNP2hGCsiIjI/DPAyxQBPhRWjVuONOXPxND5zHHMJe3vs+oLLAlLh6VuxJifcHIqISBsDvEwxwFNR6Tl3Hm49eZJx31qpxNoP3oeXu7uEVZEcRB3qKw6Vya8SzZfCSuVRjBUREZkHBniZYoCnojR82TKcvBGh1TakfXsM6dBeoopILuKvrkFqUpQmmJfW/EkBEu7shLVLTTi98AUiD7yhaUvReYxtmfZwrPWhBNUSEZkGBniZYoCnojZ54yYEnjql1ebfoAGm9nxDoorIEuib9Cpw9dui+X+FcYshIjIRDPAyxQBPxWHp3n34+Z9/tNpcHR0xqJ0ferdoIU1RJHs5hXibUk2Q9ORoxn2XJj9A6ehlrLKIiCTDAC9TDPBUXPad/Q+TN25Ecor20IaKpUphxYj34KxSSVQZyVV02Eikxt/J8zilUxW4NJ5jhIqIiKTFAC9TDPBUnISVafr/tBD3NL88sqtdoTxWvPeeBFWRnOV0FV4fZ59vobCyRdKT41B55v9xRETmggFephjgyRjWHj6MlUEHtJaaTNeyenXM7f+OBFWR3EUe6CVu+pQfSqdqcGn8bTFXRERkXAzwMsUAT8a0IDAQG4JDkJCcrNWuUCjwcsMGmNyjh0SVkVzFXlwAhyqDoLB2yPPqPCe8EpHcMMDLFAM8SWHmli3Y+e8JpGb7vrO1tsaAtr4Y3J7LTlLRi/n3cyQ/PZfrMapKfWDv3cdIFRERFS8GeJligCcpjfvlFxy+cFGnfViHDni3fTvjF0SyFxnUHeJC8rmwLtUYzvUmGacgIqJixABfCGq1GgEBAVi3bh0iIiJQqlQp+Pv7Y/r06ahYsaLB57106RLq168vnv+ll17C33//XeBzMMCT1GI0378frlqF/27dzmgTBjHsnTQRDra20hVGsqe+uVWcvBodMhSpCQ91+hXWzijZeo0ElRERFQ0GeAMJ4bpjx444cuQIypUrB19fX1y/fh1hYWHw8PBAcHAwqlatatC5O3TogH/++UcM3wzwZO42hobiuz93ZNxXWVvjnymTJayILElqYiSiQ9/T3EjQalfYuKJkqxUSVUVEVDgM8AaaPHkyZsyYgZYtWyIwMBBOTk5i+5w5czBu3Di0bdsWQUFBBT7vzz//jCFDhmDYsGFYsmQJAzzJgjDJdc3BQxn3PZydsf3TTySsiCxNrmvJKx1g694cjrU+NG5RREQGYoA3QFJSEkqXLi1+4o4fP45GjRpp9Tdo0ACnTp3C0aNH0bhx43yf98GDB6hVq5b4mAkTJqB9+/YM8CQb49euQ9C5zImGNcuVw6qRIySsiCxNcsxlxBz/OMd+lXdf2FfqbcSKiIgMwwBvgP3794vDXIQhMpcvX9bpF67MC1fop0yZgqlTp+b7vH369MEff/yB06dP49atWwzwJDv9F/yEi/fuZdz3q10bs/u+JWFFZGniLv+MhNvb9XdaqeDq+5txCyIiMgADvAHmzZuHMWPGoFevXtiwYYNO/44dO9C1a1d069YNW7Zsydc5d+7ciS5duogTYCdNmiSOgWeAJznqMvtrPH72LOO+sLzkiBdflLAisjTPzgQg6XGo3j5VpTdh780XlURk2hjgDTB27FjMnTtXDPHCmPfsTp48iYYNG8LHxwfHjh3L83yxsbGoW7cuVCqVOPTG1taWAZ5kKzklBR1nztLa9OmX90eiWtmyElZFliw67H2kxj9fLUlhUxIlW62UtiAiojwwwBtAmGC6dOlScZz6zJkzdfqFYTXVq1dHjRo1cOHChTzPJ7wQEK7q79u3TwztgoIG+ISEBPEjnRDgPT09GeDJJIVfvYpRK1Zm3LdVKnFg6hTpCiKLlhIbgadHR2u1qbz7wb5SL3EVGytbV4kqIyLSjwHeAEOHDsWyZcswceJEcbx7dsI67kJ4z0+AFya6tmjRAv369cOqVasy2gsa4IWx9tOmTdNpt8AvD5mJZfv2Y9n+/Rn3XR0c8Nfnn0lYEVmyqMNvIy35md4+pVM1uDT+1sgVERHljAHeAEU1hCY5ORlNmzYVN4E6f/68uH58Ol6BJ0swacNG7D59OuN+JXd3LBoyGK6OjhJWRZYo/uoaqG/+nkOvAq5++ZvPRERkDAzwBiiqSazCxk+VK1dG2bJlUbNmTa0+4YsivBBwdXUVd2UV1pn/888/810jx8CTuRi8eAnO3rql1WalUKCelyda16iB/m3bSlQZWZpn/32NpIdHcuhliCci08EAb4D8LiMpfOgb1pIuPcDnhxDGhS9UfjHAkzl5/dvvcD86Osf+sprv5ZaaMD/+tVeNWBVZqmf/faMJ8od1OxTWcG27yfgFERFlwwBvgMTERHEjp2hN4MhtI6ewsDBxiIwhuAoNWZoJv63HkUuXEK/5+cpN06pV8OPAgcYpiixWzIkJSI4+q7/Tyg72ld6EyquHcYsiIvo/BngDCRNYZ82ahVatWiEwMBCO/x+zK4yJHzduHNq0aYODBw9mHD9//nzxo3v37ggICMjz/AzwZKkear531xw8hCMXL+LWkyd6j7G3tcXIF19ErxbNjVwdWZKkqLN4dnJCrsfYuLeCU91PjVQREdFzDPAGUqvVaNeuHUJDQ1GuXDn4+vrixo0b4n03NzeEhISgWrVqGcenrxIzYMAArFy5Ms/zM8ATPbf28GExzP97/QZSUlO1+hpU8sLiIUMkqowsRcL9ICTc/hMpMZf09ttVfB0OVQcZuSoismQM8IUQHx8vXk1fu3Ytbt68KU449ff3F8fACyvAZMUAT1R47y37GSc0L5SzsrO2xrCOHdCvTRuJqiJLEnNyEpKjTmdrtdKE+NegdKoMuzJ+ktRFRJaFAV6mGOBJrjaFhmJB4G6dsfJ1KlbA8uHDJaqKLEl0+AdIjbult0/p6A2XJvOMXBERWRoGeJligCe5G7VyJcKvXNVqc7C1xb5JEyWqiCxJWlIMoo68o7fP1W+rkashIkvDAC9TDPBkCXb++y++27ETsVk2MVMoFBjWoQMGteNQBipe+ofTPGfj3gJ25TvDxtXHyFURkSVggJcpBniyJKNXrkLYlStabZ1eeAEz3+wtUUVkKeKuLEfKs2s5BnlhfLyr32aj1kRE8scAL1MM8GRpfvj7b6w9rL2LZs1y5bBq5AiJKiJLE3WkP9KSnurp4S6uRFS0GOBligGeLNG+s/9hysaNSEpJyWgr5eiInZ+Nl7AqshTxN9ZDfX1djv1Wjl6wLd0W9l49jVgVEckRA7xMMcCTpUpMTkb37+bg8bNnGW3WSiUCv/hcnORKVJyiw0YiNf5OnsdxoisV1OoDB9G/ra/RHqd7ngPifKMRL75Y6HNR4THAyxQDPFm6QYsW4dztzCBlrfllJ6xQY2ttLWFVZEnib2yE+vqv+jut7ODqu964BZHZaj1lqriRnZuTE3aMz//Ov+mPK6vJA1s/Hmfw86/SvAhYuHu3ePvlBg0wpecbBp+LigYDvEwxwBMBUzZuwq5TpzLuCyE+aMpkKDX/JTKW6NBhSFU/0Gm3r9wfKq8eElRExaXTrC+RnJyMfzS/Z7L6aNVqeLq7wdPNDRfu3MWkHt0z+j5ctQpVSpfBhy/76z3n3J07sT44RLyt0HwEz5iuc8y0Tb/jr5MnUUlz/vUffSi2zdi8BTv+/TfXx+VXi0mZ/x5hpa/g6dMMPpfUhM+3tZUS373zttSlFAoDvEwxwBM9N3vbNmwJP5pxXwjxB6dOEf8IERlLZFA3ve1Zh9LEX18He++3jFUSFbEus7/WGrr3ZssWGPPKK+KQvruaoJWVh7Mztn/6Cbp+/Q0excSIbd8P6I/m1arpnDc9nAuE31orR44QJ+i3mToNXRs1wmevv6YVsAU9mjXF5rDwjPv5DfBj16zBpXv3sWDQQHi5u2e0Gxrgfz18GMv27ccLFSviR805pTZy+XIcv3ZdvN2udm181dd8f94Y4GWKAZ4oU8Aff+CPo8cy7gsh/tC0qdIVRBYppxAvLDWpsHZAWrIQ/pSaUP+7McuiIpI9RAsquLridmSkTnt6oM76GFtrJQ5MmaJzrN+06UhITs64/16njli0Z2+B6xvaoT0Gt2+fY//sbduxJTwz9L/RrBk+ebWreNuQAL9V8zv3K83v3ozH4fm/Wcglo1etEl+svN2mTa7nCL18GU4qFepqXgDkx9ajR9GtSZMc++X0TgIDvEwxwBNp+3LrH9h2jCGepJNzgNdmU6oJnOpxR2Fzoy/A50RfgFdaKXB4WmagLMj5CsrF3h7Vy5bFsWvXxCGFwjj5girh4IBdn3+GBYGBWHPwUIEfn9e7Akv27sXyf4LE294eHqjn6YkJ3XP+GUr/fJXQ/Nt2ffF5rseIz5+PAP/BipXiuyWmOOafAV6mGOCJdM3ashXbjx/PuC/84XqxXj1MNcFfziQ/0SFDkZrwMF/H2lcZAJVn97wPJMldvncPby/4qcCP+/S1V/H1tu1abTXKlcPqkSPQY85c3NFz5V5uqpUpg5tPniAhKQk2SqU4vPENzb9d37sWApWNDf6ZPCnj/ry//sJvR4J1jpv9Vh/41anz/Ha2dxbS5RTgN4SEYs6OHTrtjStXxi1NrcJwoFl93sz3v7G4MMDLVHqAX/rGcDjY6F86L9cxwLkOD9bfaaW0glt1b7QZNRCqkgZ9QxEVu6wTu7Iqrfkl+HLDBlwijYpVVPAgpCXmL5jZVXwdDlUHFXNFVBDCGOrSLiW0XvQX55Vy0q93ixaakP8Ehy9c1NvftlYtfN2vb65fm/R3AAx5B+HVxj5wdXDE6oMHxfu9WjTHuC5dCnSOwmKAl6n0AD/PtyfsrW2M/vzO5TxQ8+X28Hk7f28ZExlTTiE+XYe6dfGlCVxhIflSR2xG/LXVeR5nZV8eJZoV/OouFdzP+/fjrdatse3oUfRp1UpsG7hwEc7feb4cbUkHB0TFxWk9xlcTFA+eP2/0Wsm0FHaVH0MwwMuU1AE+nULzDebVshFajxoAp9LueT+AyEiu3r+Pn3bvQfClS3rHfzatUhk/DuLVTypesefmIPHBAfG2wtoZackxOse4aAK8UhPk1RG/Q+XF4V5F5fewMHGipqDl5ClaQ071jVEnyk0/zYu/Uf4vGe35GOBlKj3A75z1AxxV9roH5PZly7Ur5874J9G4GX4KaVm2sc/K0aMUar7cDk0GchtxMi3rjhzBzn9P4NK9e1rtPt7e+GnwuxJVRZYq8kAvzS/bpBz7uYtr4TGYU1Hr10YT4F9igKdCknIS64m123B+5348vXNf/wEKBTyb1keL9/rB1Tt/S0MRGUOMWo0e380R/5uuUaVKWDhksIRVkSXKz4o1tmU7wrHmKCNUY56Ed9aENdRvPH6E8iVdEfBWH7G985cBeBofL3F1JDcM8FQkTGUVmr0zfsS1Q+FITUrW229fqiRq+rdFsyF9jFwZkX7Cz8xLAV9p/YFv4OWFxUOHSFgVWaL8hHhejc8Zr7KTMXX1aYSJ3Y23chQDvEyZSoBPd2rjDpzfsR9REXdyPKaCT100HfwmStfW3YmOyNiyX6Wr51kRS4cNk7AisjRxV1Yi4VbeAV1hWwq2Hq3gUM2yXmTGJSaiw4yZ4m1hQ6APXuqc0ffRqtUIuXxZqtLIAjnY2mLfJOPt38AAL1OmFuCz2h/wE64GhSIlUf8YT1UJZ9To3BYtRvQzcmVE2oQr8dFZVp3o0qgRJvXg2txkXHGXlyHpyXGkxud8AeQ5BVz9thilJlOQ06Y8whC4F2d9KVVZZKGMvbMrA7xMmXKAT3dmyy7xqvyTqxE5HlO2Xi00erubOGaeSAovfzUbkbGxGfd/evdd+FT2lqweslxPj36IlNgbuR6jdKwMlyZzxdtpSTFQ2DgbozSjEtbtvhsZhT1nzmS0pa8a81Pg7oy1uYmMiQGeioQ5BPisgr5dgiv7gpGsTtDbb+vkgOov+orLURIZU2xCgjicJn2pyew7ARIZW+y5uUh8EJTv4+U0Tr71lKl6l30lkhoDPBUJcwvw6W4fP4Owpb/h4YWrOR4jjJGv37sLqvg1N2JlZMlWHTiAhbv3ZNz3dnfHbx+OlrAioucig3po/j/vQCuE+Pira8Qr8ipP89pgT3gHbFNIKJ7EPsOW8KNSl2N0wlr1n7zaNV+Tcn95fyS+27ET/16/XvyFkRYGeCoS5hrgszo0bzku7T2MpFj9y33ZONijWsdW8B3DJf6o+I1ZvUbc9Cndyw0aYEpPbqpD0os5MQHJ0WfzfbzKuy/sK/UuxooKp9u334lX2bd/+ol431JXkxGGBe2dNFGcHCn4cusf2HbsmM4xgRO+wPCly1CnYoWMVVAGLVokDjPaMf5TKDVBT/gccnOq4sUAT0VCDgE+nbCe/P6Ahbh/9mKOx7hV80bdbi+i1ivtjVgZWZrXvvkWDzQ/W+mm9eyJlxpwfgZJLz9LTmal8uoN9e0/YevWBI61xxZTVQXXb/4CXLn/fA8Rd+fn4/cfxejuTmtOhGF36iTdRRteql8ftyOfwNpKKW4iJwzXE7zSsCEmv9Ejx/MJcwDWHDyUEcgLqs3UaUjOYcPF7IRQ2qt5c2wICcnxmNY1a+DwhZz/PvfUPP7Svbs4eSPn+W5ywABPRUJOAT6rI/NX49Lug0iIidXbb62yQ5V2LdB23BBYKZVGro7kTli2TljdIn0MrnBla9RLndGnVSuJKyNLlxxzGfHX1mj+LKciLTkOKc+u5PuxpjRG3hSvDnu5uSHi8WOttvxczc4pYM/fFai15GW6RXv2QJ2YhI9eebmwJefpnQU/oVzJkvi6X19xWNLsbdvE9jY1a+Lbt/uJk4EvakL3vP79xfbBi5fg7K1bqFW+PK49eICE5OQc/305rQ60VfM8wr/RRvO3+aGBL8qEz5vw+TNFDPBUJOQa4NMJS1Du/Gw27p74L8djXCt7onaX9nihh78RKyO5E1a4EP64ZfVKo4aY3CPnK2ZEUokOG4HU+Lu5HmNbpgMca0k3pyN9pafhHTti8d69ktWhT9ZQturAQSzc/fxnP+u+EL5TpyEpJUUM+oL0sG/sjX0KY31wCB5rQvXIzi/m6/hfDx1CvzZt9PYt3bcPP+//B1aaz92RHALtm9//gBuPHmm1verjg+3Hj2fcr1OhAv67fVu8nXWN9dxeNFUsVQr3o6PFr0dW6S82Jvy2HnvPntXbl11BX0yO9n8JfVu3LtBjCoMBXqbkHuCzClm8Fhd3HYA66qnefqWNDSr7NYPv2CGwUdkZuTqSI+FqVfbJdMIfm+XvDZeoIqKc5bUhlF2FLnCoNtSIFWX6aPVqhFwynQ2Xxnbpgjk7dmTcz35VVXjxflcTmmb07qX1OOHqcremTcTbS/fuw9COHYxTsBmbsH4DqpT2wOD2mUNfRy5fjuPXruPNli0w5pVXxLY1Bw/iHV/fjGOyL+2bzlmlwu4JX2Tc3xQWhm+3/yneFq7cv53lBcewpctwKiIC/TSBe5QmeOdE3wsVfcFe822i+T4p+HCmwmCAlylLCvBZ7fw0ALeOns6xv4RnOXGcfIM3uxqxKpKjjaFhmLdzp9aSdm5OTuKkMSJTFBX8LtISn+R6jMLGFSVbrTBKPXN27Mx1bHVxaFq1CsKv5LzK2efdXkfA1j8y7gvD5A5Pm2qEyqggPly1Ct4eHmLIX7xnL4Z36mjU5w+9fFlc1OCjl1/GlvBwdG/a1KjPL2CAlylLDfDpwn/egAt//4O4x1F6+62slfBu3QRtPhyUpirpojByeSQTT+Pj0Xve94jKsltrSQcH/P35ZxJWRZSzZ2dmIelxeK7HKF3qwKVR8e5k2m76DL0TO4uTMGl0Wq+eOQ6NGNvlFbxYr554hTddvzatMeqlnK/QEkmFAV6mLD3AZ/X3F9/gZtgJpKXq/1w4l/MQr8o36mdeayOT6ej/00JcvJs5zriUoyN2fjZewoosx+EfVsLB3RWN+r4udSlmJT+r1qgqvQl777eK/Lk//uVXHLpwocjPm917nTpi0Z7MMfWvNvbBhG7P/91ZQ/xnr72WMfxFIExUj1GrYatU4sDUKcVeJ5EhGOBligFe17HVm3Fh5z949uCR3n6F5odB2Byq46RRRq6M5GD4smVay6RxOE3x2zn+K9wKPyXe9hv/Hmq+1FbiisxH/I31UF9fl69jVV69YF+5X5E8r7FWmRHeVp3Wqxcmb9yY0fZ6k8b4/PXMF3rf/rkDVUqXRo9musMfVh84gP5t+f1EposBXqYY4HMXOHkubgQfR5qetXBVJZzx2veTUdKrggSVkTkbumQpTt+8mXHfw9k5YzMaKnpLOvTNvKNQYNjeX6UrxgxFBQ9GWuLjvA/8P9uyLyI56hSsS74Ax5oFv9BhzCUiO9erhyZVq+LLrZmTd3u3aCEOkyGSAwZ4mWKAz58Ta7fh/M794mZR2dXw90O7T7mqCBXMu4sWZyx9JuBwmuLDAF946ojfkRx9DkrHSrCv8k6BNoRSOlWBS+M5+Tq2KMN77QrlcfHuPTSo5IULd+5mbICUvqJI0H//wa9OHawPCcHcHTszHtff1zffyyQSmToGeJligC+434d9jseXb2i1OZf1QK/lX4sbRBHl14CFC8Vgkc7e1hb7/7+GMRUdBvii9+zs10h6dKRAj7FxawqnFybotO86eQoHz5/HnjNniqQ2VwcH/FXACeLpLxwM3bWUyFQxwMsUA7xhwpb9hpO/bdee8KoJBsKyk82HFf1kLpKvdxcvxn+3Mq/EC8vRbfzoQ5R3dZWwKnlhgC8eBbkKn862tB8ca4/Raiuqq+6F2eFS2Pnzb80LiU4vvKB391Mic8UAL1MM8IWzrt9HiLn7QKutVBUv9Fz2lUQVkTkas3qNuFZwVo28vdGhbl30atFcoqrkIz8BXvxZvvcQTQa+AZ93uFtufiU9CsWzswH5Pv5JgjX23nVF7SoNUd/hCmaGO+DgbasCPWfWq+S8ck6UOwZ4mWKAL7wD3y4Vx8dnZWVjjaaDeqFBn1clqorMzYzNW7Dj33/19rWoXg3z+vc3ckXykVeAP7P5bxyZvzrHfiqY6LCRSI2/o9MuvGE5NrwqLjx1FO8rkKb5X8G318i6m+X4tetw4Px5vOrjgy+6cYlQouwY4GWKAb7orHnjPcRHPtVqK1e/Fl6dZ7wVFci8Ldy9G6sOHNTb51mqFDaO+cjIFclDXgF+6weT8eC/yxn3h+xeAyul0ljlyZK+4TVPk5R4M6huoc89rWdPvNSgfqHPQ2QJGOALQa1WIyAgAOvWrUNERARKaf4Q+/v7Y/r06ahYsWK+zpGcnIyZM2ciPDwc586dw8OHD5GUlARPT0907twZ48ePh5eXV4FrY4AvWrsmfYcbh49ptdk42KPDFyNRqVVjiaoic5KckoJ5f/2F/Wf/w+Nnz7T6ypcsic3jxkpUmfnKK8Af+n4F/vtjd8b9ap1aa35m3zdWebIXH7EJsVd/wbVnKowKrZHvxwnX5jePHYPuc+ZqtXGoDFH+McAbSAjvHTt2xJEjR1CuXDn4+vri+vXrCAsLg4eHB4KDg1G1atU8z/NM84fc2dkZTk5OqF+/PsqXL4/ExEScOHFCfFEghPB9+/bBx8enQPUxwBe9yIjb2DpiEpLi1Vrt3m2aovP0MTk8ikiXsOzdoIWLEPE4cw3u0ppfwts++VjCqsxL7MMn+PXNDzIb9AT4g3N/xrntmTtxqlxLoP/vC41VokXo88OPuP7wYYEeI4T1tZ3uITLJASODnoePSm5uWP/Rh8VQIZE8McAbaPLkyZgxYwZatmyJwMBAMYAL5syZg3HjxqFt27YICgrK8zzCFfjQ0FA0b94c1tbWGe0pKSmYNGmSeIVf6AsJCSlQfQzwxWfbh9Nw77T2NuD2mmDQbcF0cdlJovx6SxN+rmUJPw52dhj54ovo2byZhFWZhzObd+HI/FWZDXoC/L4vf8LlPYdyPYYK7vK9ewi9fFlci33XqVMFfrwQ4Nf7nYWzTQpuxdrBu/0KONs7FH2hRDLGAG8AYYhL6dKlxU/c8ePH0ahRI63+Bg0a4JTml9rRo0fRuLHhwyuEcC9cnReu9gtX6h0dHfP9WAb44nVi3TYcXbERqcnaO7nW6toBbccOkagqMkfvLPgJlzSBKKv6Xl5YMpTfR7k5vmaL+DOYQU84D5wyF9cPhus9RnislY0NfN4u+JKJlizov3MYv25doc4hDqFpfxoqZebfJ1e/rYi/ugbqm7/DSlUaJZovKWSlRPLGAG+A/fv3o0OHDuIQmcuXL+v0C1fmhSv0U6ZMwdSpUw1+HuEqvPCFEQJ8XFwc7Ozyv5kQA7xxbBw8HpHXbmq1uZQvg94rv4FVlndUiHIzbOkynIqI0GqzUSrxVqtW3DkyByGL1+LU+j8zG/QE+L8+m42bYSd1jjk0bzn+27ZHbGqkCfBN3+1tjJLN3uxt27Al/GiBH1fFKR4vV3yMBeefzw2r7BiPn1peyvUxtmXawbEWJ3cT5YQB3gDz5s3DmDFj0KtXL2zYsEGnf8eOHejatSu6deuGLVu2GPQcwqf1yy+/xMSJE9GpUyfs3r077wdlwQBvPCELf8WpTTuFL1pGm8JKgQZvvYZmg9+UsDIyJ+uDg7Foz17EJyZqtXs4O+NtX1+80qghHGxtxQ2hCDgwZxnO/7kvs0FPgN/+0XTcPXVe5xhz3wBqy4iJeHjhKhzLuKPfuh+K9bnaTZ8BdVKSwY93UdkhcMIERB7sjeB7KlyOsYd/hSfwUOV9TruKryHx/gGkJUWJ961LNoBzg+cbOsVdXgaHanyXiiwXA7wBxo4di7lz54ohXhjznt3JkyfRsGFDceLpsWPH9JxBP2HFmfv374vhWxiCc+XKFdSqVQs7d+5E5cqVC1QjA7zxre0zGs8ePNJqc6vmjTeWfClRRWSOPlq1GiF63tnLaljHDni3XTvjFGSi9s74EVf2B2c26Anim9+bgEcXr2U5RvO527vW7AN81vpbvNcP9Xt3KZbnEdZiDzp3rkCP2fDhaHi5u+fYb8gur7lROlWBU71JsLLlDsdkWRjgDTBs2DAsXboUEyZMEJeAzE4YVlO9enXUqFEDFy5c0HMG/apVqyaG9nQvvPACfv31V3F1mrwkJCSIH+mEAC8sRWmBXx5J7f9qIS4Faq/3rbSxQbOhfVCv58sSVUXm5uytW5jw23rci47W22+rVOLA1ClGrsq0/PX517gZeiKzQU8Q3zDoE0TduK3V1mv519j47qe5Ps7UZQ3wNV9uB79PhhXZuYXhXF7ubpjYvTte++ZbPHj6NO8H/V/WjZhyEnN6OpKfHH9+x0oFpKpzPT7/FHD1y3zHO+bEBHEsvWMtrmxD8sQAb4ChQ4di2bJl4vAWYbx7dpcuXRLDe0EDfLpHjx6JV+6FFwjC1XzhuQYMGJDrY4Sx9tOmTdNpt8Avj0lY1W0YEp5mW+u7UV10/W6CRBWROVq6bx/WHT6CuGzDagRdfRqJIctS/TF6Ku6fuZjZoCeIr31rNJ7d135XrN344fhn9uJcH2fqsgb4Gv5+aPfp8CI5b6953+Pm/5c2bVq1CsKvXC3Q4xtVqoSFQwYX6DFFfUXe2edbxBzPXI7VvnJ/qLx6FOlzEJkCBngDFNcQmuyio6PFq+/C5k7CCwHhinpOeAXe9OhcIdSwdXRA5xljUb5hHYmqInM2ePES8eq8QKkJnoen675otxSbhozHk6tZJpD/f3hMVqt7vAd1lPYV5BYj+onzVjIfZ+YB/qW2mhcl7xXJeVtMMnx36cJsxFTUIV6b9pV5IrlggDeAMSaxpnv//ffx008/4eeff8a7776b78dxDLxpiNAE+D3TvkeyOkGrvUq7Fug0ebREVZG5ioqLg3/AVxn329epg4C3+khYkXT0zTkZtk87wC9/ZZDOz54wlO30pr8yG7IFeGGJ2LClv5l0sM8a4Kt39kX7z0YUyXkLE+BfbtAAU3q+Uajnj7/2C9QRmwp1Dn1s3JrC6YUJSLgfBLsyfkV+fiIpMMAbIL/LSAof+oa1FISwFOX06dPx1VdfiZNc84sB3rRs/WAyHvyn/b3i4FYSPRbN0vyXk68o/z5ctQqhl5/PlbHk7edXvjYEic/itNqyB3ityar/V8WvOa4GhWY2ZAvqWR9jqpPQtQL8i23Q/vORhTrfuDW/4PDFi3kfmIOi/j4szivyCjs32Hr4auJLChyqFWy4D5EpYYA3QGJioriRkzDEJbeNnMLCwtC0adNCPVe7du3EHV03btyInj175vtxDPCmR9h45tjqzZq/G9qbP9Xt1hmtRw+UpigyO8LPdMvJ2hNYG1TyQpXSZXDm5k3c1/xealOzJia/Ie9xv0s79UNaqvbvtz6/zBX3YUinL8CXrlNN+8V0LgHeVK/CZ62xWqc26PCF4QE+6wtCQw1p3x5DOrQv1DmyS4o6i5SYi1B56s7ziL++HuobhdtMKrvsY+XjrqyAQ9VB+mt7chw2pXyK9PmJCooB3kDCBNZZs2ahVatWCAwMzNglVRgTP27cOLRp0wYHD2auRjJ//nzxo3v37ggICMho37ZtG2xsbODv76/5W6HIaBc2bhLOL6wFX7ZsWXFirJOTU77rY4A3XRsGfoyoiDtabSUrVUDvFd9IVBGZm0kbNmL36dO5HjP7rT7wqyPfuRb6wnmlVo3Fd7aEiasvfzVe7zGOHqUQ+/BJZoO5B/iOrdBhwgcGn6sww2YEtcuXx4oRRTMGv6BS1Q9hpfIQbxf+qn3mWPnMc+mOn8/sU2r6fi/kcxIZjgHeQMLuqMLV8dDQUJQrVw6+vr64ceOGeN/NzQ0hISHispDp0leJEVaTWblypU57ec0vQeFKvhC67927hxMnTuDJkyfi/e3bt4vnLwgGeNN2ZP4qnNm8S6vNylqJJoN6oeFbr0lUFZmTyRs3iSE+p5/xamXK4JcP3jdyVcVr1etDkRATC2uVnc7Y9uxUJV10JrDqlSWk/zN7ES7uOqBzSNUOrdBxouEhuahlDfCFqa3n3Hm49eRJ3gf+n4tKhcAJX2Q81krzudvwkeks01i8k2H1UzrXRErM89XmbEo1gVO9iUavgSwTA3whxMfHi1fT165di5s3b8LV1VW8ki6Mgc++YkxOAV4YarNq1Srxar3wAkAI7fb29mL4F841atQo8QVCQTHAm4dfeo1E3OMorbZyDWrj1bmTJKqIzM2srVux98xZpKamopSTE+5ERortchsfL0wsFSaYFgd7VxfER+YS9k3sSnzWAF+lfQt0mmTYhPiCXH0X3iEONvFVj9KSYhB3Zbm49rsUYT4TV76h4scAL1MM8OYjcMpcXD8YrtUmLDfp/+XHKFuvlkRVkblqPWUqUjRhXtCmZg18+/bbGX0bQkIQEx+Pwe2LdryyMehbEtJoTDnAG7ii1aI9e7AySPfdBn3M9cUgQzzJGQO8TDHAm5eoiNvYMmISkuK1dyU0tbfuyfRlHx+/eewYbA4Lx+bwcMT9f68Ib3d3/PaheS1juq7fh4i5+1CaJ9ezxnxO/hw3C+7VvMX15otDSmISfvbP3NhPWFWn05T8D2PZEn4U32zfjtQ8/jb0adUSH70sn92jhYmvCbe3waXxPMScnoHUuAgjPGtmiI+/9iuSnhyFjVsz2Hu/ZYTnJrljgJcpBnjz9McHU3D/v0tabY6l3dB7+TewcVBJVBWZk8TkZLSdlvfV0mZVq+CHgQOLv6Aiom/VmTyHvhShfuvnixNgc7Pi1cFIio0Xb2df0rKoxEdGY80bmeu+V/ZrhhenfJTn45bv/wdL9u3L13MIL/rKu8p7edvkmMuIPf+9JsjfzPvgYmTj0QpOdT4Vb6sjfofKq3Br6ZPlYICXKQZ483V8zWYcW7VZE1ZSMxsVCjR4syuaD+OVG8rbkCVLcObmrTyP69GsKT599VUjVFR42VeUcSrtLg4z2zTkM6M8f7MhfdCwb+4TzLPW6OBeCm9vmF/kdURG3MbGgZ9k3Pdu2xSdp47J8fhNoWHo2bxZvse721lbI2hK4VamMUcxJyYgOfqsNE9upRKW1Pn/HQ69ofxhgJcpBnjz99s7Y/D09n2tNrdqlfDGkoAcHkH03MOYGHT79ruMsfCCyh4eeLWxD5bt/ydjKI0wtnnvpIlwsLWVqNL8SU1JwbIX38m4L7yQrdv9JVhr6v57wjeICPk3z3O0GPE2Qhb+YnANL/TwR6sP+ud6TNYAL7xz1u+3Hw1+vowVcbIN37l9/Ax2fJy5uZS3rybAT9Mf4NtMnYZkzefO1dERkbGxeT5nWc3fjLWjR5n890NxEdZ+T7j1B5TO1eHi83xZXynG0bu2/V3zdVeKt5+d/RopsdeRlqJGyZbLjV4LmS4GeJligJeHA98txfkd+7XalLY2aD68L17QBBii3Bw6fwGNKnvD0c4uo01YNrD3vO8zxkCXsLfHri8+l6jCvAlLrj68eA33zzzfKVShtMKgHcvF8C64d/oidnz6JVISEnM9jzBOfM+07w2uo3Ttaoh99ERcNarlyLfFQJ9d1gDvVNYDfdca/nw5vRi4oAn1QZpwn867TRN0nj5W5/EFXd/d1L8PTEl0+AdIjcv7Ha7i4uq3VW/78xcbvIJvKRjgZYoBXl5Wdx8OdXSMVptnswbiZjVEBbVk714s/yco476H5g9ArFqNEg4O2DJONwxKZfkrg3TWe3epUBZ91szRaktNTsayzrlcHVco0O3Hqdj6wZScjykAB3dXvL1hgU571tDtXL403vplnsHPkdOGUqd//wvBC9ZkdFVq3RgvzRin9dj5a37Dze378NTeBic8S0H4K1AyPgnxNkok2Ci1jhWGzLSsUQNfvdXH4FotnbAz67PT0qzSk/5ugb53CmzL/K+9uwCvqvzjAP5dJ7CNhjFwlHRIS0kJCEpISCPxFwEVEAlRkBRBQkG6pEskpZSQFpGWhtE9mrER//u+897dru3W2ffzPHvcPX3H8Z7vee97fu9bsqSmGNXWL6xQYr//f8fCL7wYgvN2dsHRUkpigFcoBnjl+a3vSFzad0hnWkDaULw77muE54p00VGRp2o3aTJOXL1qMN1dKtRsGz0VJ9dtNZgeVb4Eag/rrTtR9Tk3tbrpqi+i1V6E6QUfWPe+LA4UZaKspHbo9g0KxIdrDbs8/DF8IgLTpUWFrq2xrGMfeUNirAuMqQB/eMla7JmctO+oCiVRe+jnmtfL9uzDyeGTkPFR4vHvzxmBoPgXKHTtPuJ8vbGmaKQq2Cd1kenwVlV0qlbN9Hslu7i2hKVlplrxyXMwwCsUA7wyHft1o7x4i1Jy2vLXrYoqn7NFhWxT5ZvBePb8ucH0Pu/WR8PSpZ1yDBf3HsT6ft/By9sLnTYnBVPtii7aijarh3L/032g1VKAD8+VHQ0nDsHMdz606piqfdkNWYu+jn/X/I4Dc410R7AiwAtpsmVW3TiM1bxe1+dbXP7rsMF6on9+0SZ1Zf/27CULY3nn/rhz5oLR/YnBrMSgVmr6NzSi68yHO8+YfG/n04dgy+uJgwN6an13T/P41CTEX9tgeUEX8M9SEz5BWfHi6RWE5O/u6sMhGzDAKxQDvLIZXOBV0qrCwvszRsI3IHU+gEa2O3fzJr5ctBi+Pj64EhurebhVW+tKFdG1Vi2HHYN297D0eXOh8ZThePbwMea818no8lV6d0b+OlV1J1oI8HlrVkTVPh9hWo1WJpfRUKXauiP7IbJUEcTs3I8NX40xsox1AV7QfvjV2Hy1iOgo3D1noja51v4OzPsV+2cu0Z1fuSRu582OMw8f4Pjly/hw11mT+/Hy98OFioWR6c/D8EkbjG5Lp5hcllLOy7hbePB3T7x6/tDywi7mG/EG0hThaODujgFeoRjglW/v1IU4tHiNDC/aQjNnQFS5EnijTSMEhadz0dGRp5mz/U9M2rTJYLqjW2mNdRXZNXEuji7/zXBh0Zd9wjfygVJ9mwf/gHNb9xjdR/mPW6NI49pmQ37SPoB63w9AtuIF8fjmHcxvbqRV0oYA7+3ni44bfjY53ypa+1v/5Whc3H3AYJF7QX74O2d6PPH3Rf3Dph+wFN3unj14pHltrooNOZZ23fe4S7/i6bnZrj0gLX4ZyiEgWy34hZeUr5/d2IaAzFXw4J8+ePHgJPwzV0XI65bHHyDHYYBXKAb41GNB80/w6OZto/NEX97IUkWRr1ZF5KronC4R5LneHTUaNx8YDowUHhyM3/qlfL11Y8915KtdBU/v3jOYLqmCbLuV0+AfGmww6/6lqzLcPr33APGPnmitA9Qf+zWyFslvZYD3QuvlkxAUllaOxTCvSVc5eJL+MvoBXr/UpbFlUyLA272N/4ibep33Y+JmhFxH3X9ehOjQQn3duj+9T0guvIi7Cbx4ojPdOyg70pUxfNBb3/19H6u2ESXfpxgh18vLB6GF+zvqcBWFAV6hGOBTF/Fg3JnNO80vpLpQZ3o9N6LKl0TJVu57QSDX+ffqVXw4eYr83BAVae4/Sboo586UCfO7d7NqOyKYh2SIQOXPjXeDUZOBWu8zStx0ilZi0fptwMqwuWXETzi9aYdmnXarp8M/KNBsgI8sXRS3Tp5Dsab1dAZs2jXhZxz9Zb3F47h38QqWtNN7uFZv2eSG78wF8xqM1GwrUZJS52/LAO+R3DnUa/MNL47n947CyzcEYRXmyGnWHHtAtrqslGMBA7xCMcCnTqJLjRjU5vqRk7ojuRohLuQ5y5VAiZYNLA4RT6nLk/h4OZhP64mqIHz9utFlutd+Gy3ffNNg+spuAzUhUwy4VKy56ZFebQ60VobN+5evYVmHvniRkCD7y4t+82b7yXuJB2jnqf7jZTDruepvcW7rXhnuj63YYHAcf46dgVsnzsqW/8e37po85sVteqqOy/jf0qW03suankNx9eBx5KnxJqr176pZ5PchP+LepWtoPHW4qa2Qk4nW6ud3/3b1YThUYK6WCMrZxOn7fbD/Mzl4ln+mKggp4L7dyxjgFYoBnkSlmq3fTcGlfQd1uxQYoe5qU2uw+35YkWvU+Xak0VE8/Xx88Ocgw7rqpsof6tMfkMgaWYu9LrvDWEME6gdXrsv+8l6qC50ohr7m82G4+s8xw4WtuDG4cfQkVn7yzX/LA21/nYYnsfew1Firu558b1dOHFXVHf333sXnxYzabXWmCf/M/xV/zUh8aNZHdVPXYf1sFx0o6XsZH4snpyYh4c4+mBrASbe121us5azDS0G6x61dAvPJ6cl4djXxG7LAnM0QlOsDzbx7O1rg1Ysn8Al5DWlLJVWDMifu4i94ev5nzetA1faCVNtVe3R8NLx8gxCSr6ux1Z2KAV6hGOBJ355J8xGz5wDuX7pmcpngDBFotWSCE4+KPMGAxUuw+ehRg+nFc0ZhcseOOtOsDfC7J83DkaXr5O8+fn7yv6LFXJ+mOotqWw0nDUHGfNH2vg3c/Pcs1vUZgYQncbrfUFkR4EXVJ1H9SYnKdWkpW9hPrPlDM63D+jly1Gdr/z3Jszw8PAjPYw+6+jBSXECOhgiObqsK2qOQcEvdrdT06LSPjg7X6XNv/O/irVr/Fzw6MhQJd/cn7ieyAYJzt0vx47cFA7xCMcCTOYeXrsXF3f/g2uETBl1tSn3YlH3kyai/zp5F7/kLEKcVtEvnjsaP7dppXlsb+DZ89T1idiZ2AYiIzgFvX1/cPnVedyHV+m1WTJFdVNJmy4R0kVmT/R4SnsbhxbN4/NzoI6uOU+3exatY0u5zs8t4KvENgbePD06s26KZ1kn19xBdilwd4GfV6yBv7NSVfChl3dvZGl4+gfANK4z4G1ssr0C6vHwRXnmZS3bNAK9QDPBkLXGOzG/aFU/u3JOv/UKC0X71dBcfFbmzKoOH4JlWiPdRXUiaVyiP43/sQom/tB6yNBH4RBWU+c264eXzF/J1YOG88AsNxsM9upVngtKHo/VSy5UsbKbXHz4id068P22E2VVEpSdR8UmJXq/7lvwcOPnbVs20zn8skP91ZYCf2/gj1bnywCX7Tq085eFY92O6ld9RGOAVigGebHHj2Gms7J7Un7lw4zpyqHciY7b9+y/6LVyEl3qfL69fu48K524lTTASupZ17GswYNGRbGF4HOCLcud1y6Ha0ufdVmKU1R3jZsqSlO981x8Z8r1mdnkx2JQYdColmB20yQUKvlsDz+MTcGr9Ns00owFepVDDt3Hm9514rXIZVO6p230qpbm69T91eoUH//SDX7pCCIpOvAY8OTsLL55cQpoiif8vMuQbl678LHj7hzttfwzwCsUAT7Za0r437sVckb9rDz5DZEqvufOw89Qpzes3Yu6g2OVYnWWOl8qLx3kjMa1TJ/l5NM1IJZhd0RlxL9gfdY9e0ZleoXtbFFYFRkeJu/9Ada77wT84yOKyz589w8w67ZO9z3JdWqFok7ryAXPtwOxuTAV4Y8s4CgO8e9MO8uqKMdoPlaY2Xn5hCKsw22n7Y4BXKAZ4sof2BVO/lByRMV8uXoLf/3vAtfKpG8hzS3eo+L+jInAqc1qUivdG3kPnjG5jQ8GsuJkmEB/8dQG+LxM/s16rUgbVB3wCbx9vx74BK4lnRabVaJXs7VTt+xHy1aqMbWNn4OTq31PgyByjxsBPZSu7sRsuDQeHagZ49/fqZTy8vP0Npr+MuwXvwIya10/OTJfT8OoF/DJVkqO6CspqzXduNxoGeIVigCd7rOw+CDeO/deiygsmWWnYr79ix4mTePfEdfhcvKEz72yGUGR49Azp4gwrzKgtLRmFh0H+yHvjASrciUO2oq/jnb4fwzfAMBi4jLk68jao3KsT8tepgnG9vkHIoeQNyuQOxAOwVft8ZHlBOzDApw5PYxbrlGr03FDPAE8pgAGe7KV90YwsUxR1v+3rwqMhT2JssCLxCWQ4PJKu2eVz46V30lKixvycLl0QnTlTyh+kvVIowOcc2BXbr1/BvbXbDLobeSIxIFzLRT/K39f2HiG/ManzbR+7t7dj/CwcX7kJXqpz4NWLF0kzbAzw6/uPkoPahWbJiBYLxtt9PORa6jDvl6E8Qgv1cfNwzwBPKYABnuylXd5PPWBNQJoQ1x4UeYQZddrJEo22SFAF97mqAK+vWfly6FG3bkodWvIlM8DHBfrjWKZQHMqROOpx2XO3UOja/ZQ6OpdRVwpKqdZyk33ubdym9nbeaNtY/pAyPb2wEHExi119GAiKbofAHM67wWCAVygGeEqOaTVa4tV/fZEz5I9Go0lDXXxE5AnMPfCodrFEHhQvkB93F6yVryPqVsb6tN44eumyznJhwcFY1+cLeZFyC8kM8DPfzKPzusrJ68h9+5Hd24uuWk6OKiuq47haeK5IxF7Q/ffz9vVR3fiHypKhkaWLou7Ivji0aDWeq27wzIVpRwT4qPIlUHuY5RFzybO9SngIL780sktOwt1/kLbEt0aXe3hkMLz9IxCSv5tm2vOHZ+CbJvH/Uf3RWL2Do+ATHInQQr3x8OAAPL9vZDRnlpGklMIAT8mxbfRUnFy3VfO6wcTBckh6ImP+GD4RZzbvtLjc8+L58fGYgQbTJ2/ejNnbtutMEx1qvm/dCpfu3MXaAweQPSICPd6pi0yqi5WoQX/u5k1EqqalCQrSfM6JgYccxkiA9wsKxGtVylpVTUY/wNc6dhWR955oXq8rnA11jl+D10sLn9l6QdaamyZ3U6B+dVTq0UHzev/sZTi/bS9iY66YXokBntzU4xPjEfL6p07fLwO8QjHAU3LNqN0WL+ITHzxMmz0Lms8d4+IjInf04OoNLGrVw6plO26aK0f8NObNgYPwQm9UYH1Zw8IwRhXqh69ciSMXLyFH+vT4uGZNjFm3DgGq7X7XsqVD+83/PuRHnN2yW/O66qBP8fTaLeydYrqcovgE3povM85nTKMzvfjFuyh56a7m9fbqxTClcyc5wJWQNltm+bc1YGWA9wnwt7k7k9NovQerb0BMBHjR2HB532EUeLeGzgjSDPCkdAzwCsUAT8m1b9oiHFy4SvP6zU/aoVCDWi48InJHW0dOxqkN2w2m56pUGhf+/CtpghUtqLGPH+OT2XNw+vp1s8uZUj5PHoxt28audc25ef8+Avz8cOVcDA7NWAoffz8sCnmJqwnPUN8vDTJu/cdgnXMZQnEoMlx1lfSSNe71BcY/R6PDVxD4LAEXM4Zi6OKpcvquCT8jNuYy3hnVHys/GYQbR0/prmghwL8zur8cmK1k64bu2zr/33tY98UIXN5/xOrVSrZphFLt3teZpnmPZv4uURVKovbQz5N3zERuhgFeoRjgKSXMadAZzx4k9tMNDE+HNssnufiIyN1onyMa/4WpeU264smdxEorYbki0XTmd1Zts/6o0bil+gyzlehAs/izTxGVPr3JZa7GxuLxs2fImyWLVdtcsX8/Rq5cZXJ+ZOxj1Dp+TfP6RppAbM+XGQ8DfOXfwZSutWqidaVKFve/+ZvxOLdtb9IEvaD6a7evcfP4GaPz3D3AL+/UD3fOxti8uroxYePAsbo3iSo5yhRDxc8+xMIWSV0afAMD5IP4j2/dlVVzIksV0XQRtGYwqtiLV5AuexaT3x4RuQIDvEIxwFNKOLx0LfZMSgoExlrAKPV5eP0Wlnfuh/hHT4zOT583FxpPGS5/n1m3PV69eIkOG+bYtI/5O3bg/K1bKBQZiYalS6PmsOF4GBdn1bqf13sHVQsWhL+vLyZt2oQz12/IdB8Xn6Bp3a//Rkm0r1IF2cKThj4XXXh8VBfF+OfPcTAmBpER6dF0/Hg81y5nqP9eH8bhvcNJD3DeDA3AmmI5zB6fiPW7hwy26r2oqW+GCjeqjQrddL9lmFW/AxIeP9WM8qqmH+CzFHkd14+cMNi2qOVu7FsUh/kvwNt9g2FhfTEA1fnt+6zalF9oMNqvmo6jKzbg7B+7EV21LIo0rqOZLz7/xOegUL5ra515Ke3gglV4cjdW9e/b1mH7IOVggFcoBnhKKQuaf4JHN2/L332DAvHh2pkuPiJyNe1zQlvW4gXxIj4eDSbYFk6tIUJ4q4kTU3Sb3qog2L/Be6hcoAD6LFgoQ3v9kiVx88F97Dl9xqptpH0aj/cPXNS8vh0SgFXFkwK8dlivNXwEHjx9Km9I+rxbP0XfizHGSjsuad8b99QPi6oOrvPvCwyX9QDFW7wrA2+y6d8MaP1NBGcNJnVSdQO1beRk+XuOcsVRZ/gXDtkPKQcDvEIxwFNKEWXg5jbuonld8L2aqPhpexceEbmCGKTp8e1Y2VorBtrRl7V4AdQf85XDj2PRrl1oXqFC4jHt3o1f9v2FmNuGNxPW8vXxQcY0aXBNdSG0VbGcUTh8PgYt9p1HwIvEB3A3FciKSxEhSBsUhDaVK6FVxYp2H1tyGQufS1UBPlYBAT4lRURH4e65pJswkw/ZmgnwopLOibVb5Lckud8qj+pfdbfpGDjqLNmKAV6hGOApJS3r2Ed1gbskf/fy9UWnjT9bWIOUZNeEOTj6ywazy1To3haFG77tpCMytGTPXoxZu9Zp+8uTKRPmdU+sGPN+114ociUWt9IEIrBGOYx2wIO09tAJhaqLfefN8zQjlEpaAf7AvF+xf+YSFxylG7IjwOvfAGV8PTca/jTE6l0ywJOtGOAVigGeUpr2BUYMIlPj609ceDTkTPObdsPj23eNzhPlDkVYqT6gm9H5zrRs3z6MXr3G5HzR3/3e48d4Ep+88orvly2Dz+vVS3o9dhwu371rV992R1rdcyiuHTwuf++kCoTqOvnqErE+/v7osH62zjqHl65DthIF8Uvn/s4+XLdSomUDXNi532CAKlGes8Nvs3Wm7Z40D0dUfzdLwnJlR9OZo4zOszbAqxtTSrVvIisNUerFAK9QDPCU0rTDAFuIUpcZb6sCX0KCwXRRsjB7ycIuOCLTDpw/j7/PnUen6tU005bs2YPzN2/Jfufzdu7EhPXmv03QFp0pEzKrPkuPXb4s+68XyRGJaZ07Gyw3ceNGdK3lfmVW981YjOgqZZEhTy6d6X+OnaEzmJK+1NylxhqlOzbDuS17kLt6BTy9ew9Hlv1m0/peqvD16uVLBKUPQ+ulP1kV4Hf/NDdpP/wMTvUY4BWKAZ4cQfsik614QdQbM8CFR0POYjTMeXCAENVsLt6+jZlbtmLnqVOyZbpn3bpYtnevpj+9u7WmO5v+v7l/aDCazfle53kYShSaOQMe3bD/OYwM+V7D7VPnkyaY+H9L/98kJGMEgsLTodHkYXbvmzwXA7xCMcCTI2waNE6nPFurpRMRnD7c5PJx9x7g2tGTeHD5Ooo1d3zVDUp5Vw4cxdrPhxtMV2I3KhHqm47/Qf7eoWpVnVb81MaaFuHptVrj5XPTJTbJTv/9vUX9+fCo7LJ+vXqEXmNCMqdHy4U/OvEAzbunOu4VXb5CusgsaDTF8LODUgYDvEIxwJOjTKvRSn71K4TnzI68NSvh0a07sgVKXGjE7wYD+yDxK+MGEwcjY/5oZx8yJYPO1/Yq4kbsRcJzVOja2oVHRY6mXf/c1APKosb/87hnOtPEwEjsfuMaRd6vg/Ift8aO8bMcUilM/rta8c2b9r//6/WqoXLPjil+LNZa/dlgXDt8AoVU5++b3ZVVX58BXqEY4MlRdoybieOrNtu1rgjxDScPNeiPS+5rdY8huHboX/m7rZU1SNlEq7C4addI7gBNlGwBaUM1DShB4WnxNPYBcpQthjoj+phd79nDx5jb+CPNNypBEWGyb78gSgfrlI61EOKdXVFHfEto7Fmci3sPYn2/75x2HM7GAK9QDPDkSMZa3qwlQnyjqcORPjrKpvV2TZwrW/6V1oriSqLG/9reI5AuRxbUHPiZ0WXUo3wKBepXN/vgI6U+xsKaqQDv5eODV3qj2oZkSo80mTMgXWRWVOndmeHfQXK++QZ8AwIQnjMbSrZuJKf9MfwnnNm8w/aNmQnDBtcGG4Lz9Lfb4GXCc6tuONSmVm+piqKvZOWket/rPpO18asxspJQ4nHoDtClT3zjFB6dA/nfrmzVft0BA3wyxMXFYcSIEVi4cCEuXryIiIgI1K5dG4MHD0ZkZKRV2xB//HXr1mHNmjU4ePAgYmJi5D9KwYIF0aJFC3z88cfw8/Oz+dgY4MmRbhw7jZXdB2peB4alRWjGCHkxDs2UQf5etFk9Tdm67WOm48SaPzTLiwv5+9NGIDyX5f9PRGgXI3+qyxga+6Am+2iPqFr2fy1QrFk9g2W0A1XtEV8gqmxxpx0fuT9bArzoXrNx4FgUeq8mrh85iYA0ISjcqLbp7ZFDePv7oeP6OSnyt1Y/wCtuwJr9/L3RbYrrwttDe2m+ed06cjLiHz1BrSE9Ncvonkfmw7bxdQxvFDZ+PRYXdvxldpv6XQQ7qP4uPv62Zy5XYIC3kwjv1atXx65du5A1a1ZUqlQJFy5cwL59+5AxY0bs3r0buXPntridAQMGYNiwYfIfokSJEsiTJw9u3bqFnTt34tmzZ6hYsSI2bNiA4OBgm46PAZ7czfbR03Bi3RbNa2tC/Llte/HH8ImyVUZbrcE9kKtiaYcda2qhfQGMKl8CtYf11pl/6+Q5rOjy382SAr+CppShbgUNzZIRLRaMT1bVIgZ45fINDEDOCm/g7B+7NNPS5ciK+5eumV3P288XrZdNkjd8gjXnl0FtfiMB/uDCVdg3bZHZ7Wiz9hkAZ2GAt9PXX3+NIUOGoHz58ti4cSNCQ0Pl9DFjxqBXr16oXLkytm3bZnE73377LR4+fChb2rNnz66Zfvr0adSoUUO27Pfr1w/Dh9v2JDcDPLkjYyG+6azvZOuNPnN97UU/z7a/TnXYcaYGYsj3eU26al4HhqdDm+WTdJYR3ZaOLk9snRL/Vp02zXXqMZLnEC2Z4gFKwaBvvMrrdd9C5c87WdyOuGnf/M14m/dfoVtbFG70Nm8AUqv/grXJQeeMBHhT54r62wQxqJmP6uahUINaZlv7989ehlLt3k+Rt2ELBng7JCQkIFOmTPIPd+DAAdlyrq1YsWI4fPgw9u/fjzfeeMPu/YiuOaIbTa5cuXD+/HnLK2hhgCd3tW30VJxct1Xz2tvXB01mjpIlx9RWfjIIN46e0llPv6UmT/UKqPal60f/9FSHl6zFnslaLUmqi1KnzfOw7osRiLv/CA0nDcHClp/h8c07cnamQnnR4MdvXHS05Glm1GmHF8/ikaNMMVTt85GsV24LEYqOLl+P+MdPdKanyZIRD6/f0l1YK1AxwJMpovU/ZtffNq8nunkd/WW9+YVc0DLPAG+HLVu2oFq1arKLzJkzZwzmi5Z50UI/cOBADBo0yO79HD9+HIUKFYK/v7/sTmMLBnhyZ1u/m4JT65O+oRIhvuns0bI/peiXLVqH1by8vVC6Y3MUb14fyzv1w52zMZp5lurQk2miH+qpDdt1poVkiNC0Xomvu7UfRivXpRWKNqnr1GMk0g7k4magzrd9MOe9TrJqipp43qbc/1oYLE/kTFmLF0D9MV85bX8M8HYYN24cevTogSZNmmDJkiUG89euXYt69eqhQYMGWLFihd37EQ+21q9fH1FRUfLhVlswwJO70w+QIsSLVgzt/u6iz2PbldN01lP3txXSZM2ED+aPc84BK8wv/+uP26cvWLewG/X7pNRFljd8v4vqRj0MLRb8oDNv6YdfIDRTehnq1fQDvHgg8UV8gsX9lBGNBC3e5Q0A2S1tZBY0/3mM0/bHAG+Hnj17YuzYsTLEiz7v+g4dOoTixYujZMmS+Ptv27+uUatZsyY2b96M7t2744cffrC8ghYGePIExlqB1SKic+D96SMNpu+a8LPO15lFm7yDcl1aOuwYlWpG7bZWBRshc5H8eG/8QMsLErnY5iE/4NyWPfL36LfKocZXn2Df9EUyoAticKqYXQfkKMLGuvWIzxbxGUNkMyc3dDDA26Fz586YNm0avvzySwwdOtRgvuhWkzdvXuTLlw8nT560ax+TJ09Gly5dEBYWhmPHjiFbtmxmlxddbLS72YgAnyNHDgZ4cntbvp2E0xv/1JmmvvCaMr95d03fbC8fb3TaNM+hx+juTm/agUwFcht9GFg4+ssG5K9bFX6BAZpptrQ0VujWxqDcH5G72jQo8Vu5moOMj21gDdG48PL5c9lFTzwvQmQRA7z769SpE6ZPny5LQIr+7vpEBRkR3u0N8KJ6Ta1ateTDssuXL0fDhg0triP62n/zjeEDZqnwn4c8kLo6jah0UqZDUxRrXt/iOtoBNEO+19Bo8jBHHqLb0r4BMlZec2W3gbhx/LTqb+uF1ssnIzBtGtw+cwG/dO5v3Q5UF4nOm1P3DRKlbkdXbMCuH+e4+jDI3THAuz9HdqER1WuqVKki/1FEtxnRfcYabIGn1EaUmhMl59RENxrRnUbtzrmL+HfVZlV4PQO/oEDkfqucLAemNOrRC4V0ObKh2ZzROvO1b3TUXWH+nrNc/pgiRm2M2Zn42WXp2xCi1GC56ob3jurGN0+NN1Gtf1eH9JUXA12xD74HY4B3f456iPXs2bNy4Kbr16/LFnVRxcZe7ANPqcHs+h01ZeZE1ZQC9avj2sHjuH0mRvOgqzafAH/krlpO1qP29vExmH9VrHv6vM6NgDFi2O2Y3X8jf923ZHUcVxHl9Ba2+DRpghfQbtV0+IckDvwmutZsGfGTzvyOG37G70Mn4Pz2fXJS2myZ8fT+AyQ8fpq4iFa9d9FH3lNGJSRyNnXY1h5DQYxSnblQXrPLq2UtXhDPHjzEqxcv0WTWKDlt549zcGzFBgceNTkMA7z7s7aMpPgx1q3FmKtXr8rwLuq9f/rpp/ImITkY4Ck1uHLgKNZ+btsgZ2piBNj0eXIi9vxlxMZcxsvnLzTzfIMC8OHaWUbXO776d+wYOyPxhSoQtxHdUsLs+gBNtl0T5sj+7dqiVTco4gE9QQR17VEPBdG6fu/iVU1NfdHlRvT1vbjnH/k6R9liqDOiD4jIsj1TFmhKWFoiHtgXfeuFHOWKo87wL0wuqx/23/ykneGAQuRWgjOEo9WSiU7bHwO8HeLj4+VATvfv3zc7kNO+fftQurTl4d5jY2PlyK1Hjx5F+/btMWPGDNWNnFeyjpEBnlKLVZ8OxvUjJ4zO8/Hzkw933lOF1aex923abob80Wg0yfAh9dnvdkT8o6TBZdLnzYXGU+y7iUiuJe0+l2Fcmxh2XLSyC3Pf/xhP794zu42SbRrJUQR/+ehLeKkuCA1/Mnyuh4hSxsFFq/Hkdqx8MNwc3ZE/DUcR1WbuM5Ccp0iTuijfpZXT9scAbyfxAOuwYcNQoUIFbNy4ESEhIXK66BPfq1cv2Zr+559JlTUmTJggf8QDqSNGjNBMf/LkCapXr449e/agadOmWLBgAXyMfLVvKwZ4Sk3mNu4iA7oY9ClD3teQvWRhlOnU3GC5dX2+xeX9R4x2rzHmjbaN5Y/atlFTcfK3rQbLvTO6v9ynttWfDcb9K9eRJnNGpM2eWfWTBflqVZIjSaYUU61x4r0X/8C6mtai3y0RuR/1Dbg1ZVwPL10nR1b29vFGthKFcPmvw4kz9Lp1aH8miHE0Hl67afXx6PTR17qpsKUkrTnim8y4ew+SvR2X4EisniMuLg5Vq1bF3r17kTVrVlSqVEkOtiRep0+fXgbyPHnyaJZXV4lp27YtZs+erZku+tKL7jIitDdr1gx+fsb7m2qvYw0GeCLT/pq5RD4AK0YajXgtByKio1CyVUP4BQfqjPLo5euLThsTW7NfvniB6TVbG91eqCqkt1g4XvNaDDATe+Gy0WULNXwbb3Zvm+z3oN+/XXvkVHFhFqOm7vxhttYxZsCjG7d1tuGjWqfDOuNdhYjIc4lSmrdOnkPdkX0QFpVdZ969i1cMpq3pOVTmBW/VZ15A2hDNg+sbBnyPa0f+RbuV0zXLiqph4jkibcnu2mMkAC9q1QMPrt4wWLTD+jlY98UIXDvsRt86MMB7lqdPn8rWdNFqfunSJYSHh6N27dqyD7yoAKPNVIBv164d5syxXJ7K1j8zAzyRfURLkmhRUgvPlR1NZo4yGLk0qlwJTb9xoez/WqBYs3rY+NUYXNi53/QOVB/0nTbPS3Y3OXGBVj+IGpA2FEUa18H+WUs188W0Zw8eyd8D06VBmxVTMKt+B/mwqpgXWaooqg/olqxjICJSU4d4UannzOadiRP/a6lPePIUs+p1MLmuuf7joiHCLyQIZTo0M7lPl2OAp5TCAE9kP/0SlaKF/u65i5rXeWpURLX+H2Nu44/wNDbxK1//0GDke7sKji7/TbNcUEQYwnNmx4MrN/DoZlLrt6n+9Wq7f5orH7J9ve5bJpfR7ouvLvVo6qvs16qUQc2B9g9qQ0RkC/Vno/4zQvumLcLBhavkSNviYflFbXrCx99Xp4U/OX7t9jVuHjcsLmIN0SiTEPdMVjKzGQM8pRQGeKLkUfer1+cXEoz2qxMvNtpVJfT5BPihw29J3679MWwCzvyeVBFGfAVtLKDPb9oNj2/flb+Xav8+SrZuZLCMqBozvVbSQ3BNZo9CeFR2k1V5qvb5SHVzUdnUWyUiUizxzeSBuUklvaPKl0DtYb1xce9BrO/3nWa6KB8sxhM5MO9XlGzVQE4zdkMgPktF+V3tbzzz1qqEt/p2cfA70cUAr1AM8ETJZ+zr2fIft0aR9+toXi9u0wv3L18zWK79mpmyT722We98iISncfJ30Y2l7a9TdeaLfqhXtVp/tGuyq4kBqrapbho03Xn0Wn52jJ+F4ys3Ja3ggpYhIiJ3Iz7Pw3JFounMpNC+4uOvcOvEWQSkS4O2K6aYXVfIV7sKqn7xP830Je17I0uhfAbPBDgDA7xCMcATJZ9+1Znw6BxoMn2kwXL6Qb9os3pGa0MfXrpWDgKllr9uVVT5vLP8fe/UhTi0aLXBOulyZEWzOd+rbhKuY12fEXh47ZbOfNHVponWBUlY02sYrv5zTP4uqt80n2s4YjQREXkuBniFYoAnShmL2/SU4VmMSCqqHxijXYfZ0kBI+hVq0ufJJUP4mc07TK5jqtybKJvZbtUMg5Z+Yfv30+RIre+M6m9yu0RE5JkY4BWKAZ4o5dw+cwEZVEHbHDEqql9QEEp3aGpxe5YqJzSaOhwb+o/W9IXX5xPgj7w1K6Jyz44W90VERMrDAK9QDPBE7ku0jp9Yu8XoPO3uN/pBX7S4F25cx6mj/RERkfthgFcoBngi9ydKql07ckIOuPIy4blBuUcxsuLhJWvl7xny5kKjKYYVZoiIKPVhgFcoBngiIiIiZWKAVygGeCIiIiJlYoBXKAZ4IiIiImVigFcoBngiIiIiZWKAVygGeCIiIiJlYoBXKAZ4IiIiImVigFcoBngiIiIiZWKAVygGeCIiIiJlYoBXKAZ4IiIiImVigFcoBngiIiIiZWKAVygGeCIiIiJlYoBXKAZ4IiIiImVigFcoBngiIiIiZWKAVygGeCIiIiJlYoBXKAZ4IiIiImVigFcoBngiIiIiZWKAVygGeCIiIiJlYoBXKAZ4IiIiImVigFcoBngiIiIiZWKAVygGeCIiIiJlYoBXKAZ4IiIiImVigFcoBngiIiIiZWKAVygGeCIiIiJlYoBXKAZ4IiIiImVigFcoBngiIiIiZWKAVygGeCIiIiJlYoBXKAZ4IiIiImVigFcoBngiIiIiZWKAVygGeCIiIiJlYoBXKAZ4IiIiImVigFcoBngiIiIiZWKAT4a4uDiMGDECCxcuxMWLFxEREYHatWtj8ODBiIyMtHo727Ztw9atW7Fv3z75c/v2beTPnx8nTpyw+9gY4ImIiIiUiQHeTiK8V69eHbt27ULWrFlRqVIlXLhwQQbwjBkzYvfu3cidO7dV2ypevDgOHTqkM40BnoiIiIiMYYC309dff40hQ4agfPny2LhxI0JDQ+X0MWPGoFevXqhcubJsWbfGF198gbCwMJQuXRoZMmRAyZIlGeCJiIiIyCgGeDskJCQgU6ZM8g934MABlChRQmd+sWLFcPjwYezfvx9vvPGGTdsWrfivvfYaAzwRERERGcUAb4ctW7agWrVqsovMmTNnDOaLlnnRQj9w4EAMGjTIpm0zwBMRERGROQzwdhg3bhx69OiBJk2aYMmSJQbz165di3r16qFBgwZYsWKFTdtmgCciIiIicxjg7dCzZ0+MHTtWhnjR512feCBVPJgq+rL//fffNm2bAZ6IiIiIzGGAt0Pnzp0xbdo0fPnllxg6dKjBfNGtJm/evMiXLx9Onjxp07btDfDPnj2TP2r3799HVFQUAzwRERGRwogAHxsbKxtr7ZA6A3ynTp0wffp0DBgwQPZ313f69GkZ3p0Z4EVf+2+++camfRERERGR5/Hy8pJjENky7pCW1Bng3bELjX4L/MuXL3H37l2kT59e/iMLokzlX3/9ZXY7lpYxN19028mRIwcuXbpk71c6LiVO5bJly8pa/p64v+Rsz951y5QpY9U61mzf0jLm5otvnHLmzCk/zHjuOX+fyd2WPetbu05KLcfzz3335+zzz5blHf3ZJ/D8c+3+nH3tFeuIa+/vv/+ObNmyyZZ4O6TOAO8JD7EaU7BgQRw/fjxZy5ibr+53Lz5MPPVDpHDhwjh27JhH7i8527N33UKFClm1jjXbt7SMufninAsPD09Of0CXcva5l9L7TO627Fnf2nVSajmef+67P2eff7Ys7+jPPoHnn2v35+xrbwodf+oM8NaWkRQ/tnZrcWSAnzhxIrp27ZqsZczN9/QAL1jzN3Ln/SVne/asa8s6jjz/PP0CJjj73EvpfSZ3W448/1JqOZ5/7rs/Z59/7vLZJ/D8c/3+3Pnaa0LqDPDx8fFyICfxP425gZzEVyKiy4ktHBngHU0JAZ48kxIuYOS5eP6RK/H8IzukzgAviAdYhw0bhgoVKmDjxo0ICQmR00Wf+F69eqFixYr4888/NctPmDBB/jRs2BAjRowwuV1PDvCiD754b/369UNAQICrD4dSEXHuffvtt+jbty/PPXI6nn/kSjz/yA6pN8DHxcWhatWq2Lt3L7JmzYpKlSohJiZGvhYPju7Zswd58uTRLK+uEtO2bVvMnj1bZ1uioo34EcT/iAcPHkRgYKBsyVf76aef5EOxRERERETJkHoDvPD06VPZ4rxgwQJZeUV8hVW7dm3ZB15UY9FmLsBbUwJS9LsXNwxERERERMmQugM8EREREZGHYYAnIiIiIvIgDPCpmRikatOmTbLajuj7f/XqVfkAjXg+gCglGDvHxPMhovuaOXPmzJFltsSYBf7+/ihXrpx88Fw8dE6kzZnn2M6dO2XxA/GMlKhmJsbVEKXgRNdKIn22nJsiiokCGGIwJzGQI5EFDPCpmRioauXKlTrTGOAppYiPFlG1Sf8cMxeuxDqiCpQYKTkoKAi1atWS56MYsU4QA6+JbRIJzjzHfvnlFzRt2lSGq8qVKyNDhgxyHVH6T4zu/f3336f8GySPZeu5yQBPNmKAT81GjhyJJ0+eyFr34idLliwM8JSitM+xUqVKyYpP5sKVCEQ1atSQ4WjXrl3ImzevnC5+f+uttxAcHIxz587JB86JBGecY3fv3kV0dLQcK2PZsmVo1KiRnH79+nVZwezs2bNyu2J9IjVbzk0GeLIRAzwl8fLyYoAnhxEfNd7e3mYvYPXq1cNvv/0mx2P47LPPdOaJ1z/++CNGjRolW1CJ9DnqHPvuu+/Qp08f+a3lihUrdLYpWuYbN26M+vXrY9WqVY57c+TRrDk3GeDJBgzwlIQBnhzJ0gVMTBOtnqJvsbiIRUZG6szfvn07qlSpIsuxirKsRPoccY6JbYrXYmC/n3/+Ga1atdJZR4z9ERYWJj8/RUu92DeRvuQEeFHm+u2338bJkyflzaXoskWpHgM8JWGAJ0eydAH7559/5GBnmTJlwo0bNwzmP3r0CGnSpEFERATu3LnjjEMmD+OIc0xsU7wWw90fPXpUPriqv88yZcrIBxbF9rUH8CNSszfAi9AuwvuVK1cwdepUtG/f3pmHTe6LAZ6SMMCTI1m6gImHvUQXBRGwRBgytr46SIkfEbSItDniHBP/VbewiwdW06ZNa7CO6BMvti1+RFcaIn32BHhxjtapUwcPHz6UA07yAX7SwgBPSRjgyZEsXcDmz58vuydUrFhRdlcwtr4YIVmUYhOtUeKBMCJtjjjHxH9FVxvx+Si63vj6+hqs07p1axmwxPY/+OADh70/8ly2BvitW7fivffek9PFcxfVq1d3wVGTG2OApyQM8ORIli5g8+bNk0FIVPUQfZGNrS+C1LVr1xjgyShHnGOXL1+Wod5cgBc3BQsXLmSAJ5NsCfAisDdv3hyhoaFYt26drGJDpIcBnpIwwJMjsQsNORq70JC7sjbAx8TEyJvEFy9eYPfu3ShbtqwLjpY8AAM8JWGAJ0dKqQcMRRURUe2DSJ8jzjGxTfFa1IDnQ6xkL1sCvPiWaO7cufKbItECL1riifQwwFMSBnhyJEsXMDHgiWj9tFTiT/yI/qFE+hxxjlkqIym2lS5dOvl7bGwsy0iSUbZ0oUlISECbNm3kcxXiXFy7di1CQkJccNTkxhjgKQkDPDmSNRewd955B+vXrzc7yI4Y3bB3797OPHTyEI46x8Trvn37mh3ISWx3zZo1jntz5NFsfYj1+fPnsiV+0aJFqFatmjy3goKCXHDk5KYY4CkJAzw5kqULmLBp0ybUqlXL6DD34iIm1hXD3ItWVCJ9jjrHRE346OhoWc5v2bJlss+7ILrhiIo2Z8+eldtlpRAyxZ4ykiLEt2zZEkuWLEGNGjWwevVqfsNDagzwqZn4Wm7IkCGa13v37pUhXvTnVPvqq69kyxKRPUSr0dChQzWvLZ1j4uOoR48eGD9+PIKDg1GzZk3ZRUGEIzFv8eLFsrWTSM1Z55gI7s2aNZPLiG4N4gZg8+bN8sHWTz/9FOPGjXP8myWPYsu5aWogJ9GdRlQ2Wr58uRzQSTwoLRraKNVjgE/NZs+ebXFUt1mzZqFdu3bOOSBSHHH+fPjhhybni4vZzJkzDc4xcW5OmDAB//77L/z8/FCuXDkMGDBAtnYSaXPmObZjxw4MGzYMe/bskaG/QIEC6Nq1K0fHJKNsOTdNBXhBhHhRVlJ016pbt678L0N8qscAT0RERETkQRjgiYiIiIg8CAM8EREREZEHYYAnIiIiIvIgDPBERERERB6EAZ6IiIiIyIMwwBMREREReRAGeCIiIiIiD8IAT0RERETkQRjgiYiIiIg8CAM8EREREZEHYYAnIiIiIvIgDPBERERERB6EAZ6IiIiIyIMwwBMREREReRAGeCIiIiIiD8IAT0RERETkQRjgiYiIiIg8CAM8EREREZEHYYAnIiIiIvIgDPBERERERB6EAZ6IiIiIyIMwwBMREREReRAGeCIiIiIiD8IAT0RERETkQRjgiYiIiIg8CAM8EREREZEHYYAnIiIiIvIgDPBERERERB6EAZ6IiIiIyIMwwBMREREReRAGeCIiIiIiD8IAT0RERETkQRjgiYiIiIg8CAM8EREREZEHYYAnIiIiIvIgDPBERERERB6EAZ6IiIiIyIMwwBMREREReRAGeCIiIiIiD8IAT0RERETkQRjgiYiIiIg8CAM8EREREZEHYYAnIiIiIvIgDPBERERERB6EAZ6IiIiIyIMwwBMREREReRAGeCIiIiIiD8IAT0RERETkQRjgiYiIiIg8CAM8EREREZEHYYAnIiIiIvIgDPBERERERB6EAZ6IiIiIyIMwwBMREREReRAGeCIiIiIiD/Lq/7koMTfvugq3AAAAAElFTkSuQmCC;" vertex="1" parent="1">
          <mxGeometry x="660" y="560" width="752" height="441" as="geometry" />
        </mxCell>
        <mxCell id="RHRyWqg5JXPaywLJchGg-3" value="&lt;b&gt;&lt;font style=&quot;font-size: 30px;&quot;&gt;小模型&lt;/font&gt;&lt;/b&gt;" style="text;html=1;align=center;verticalAlign=middle;whiteSpace=wrap;rounded=0;" vertex="1" parent="1">
          <mxGeometry x="970" y="700" width="120" height="30" as="geometry" />
        </mxCell>
        <mxCell id="RHRyWqg5JXPaywLJchGg-4" value="&lt;b&gt;&lt;font style=&quot;font-size: 30px;&quot;&gt;中模型&lt;/font&gt;&lt;/b&gt;" style="text;html=1;align=center;verticalAlign=middle;whiteSpace=wrap;rounded=0;" vertex="1" parent="1">
          <mxGeometry x="850" y="720" width="120" height="30" as="geometry" />
        </mxCell>
        <mxCell id="RHRyWqg5JXPaywLJchGg-5" value="&lt;b&gt;&lt;font style=&quot;font-size: 30px;&quot;&gt;大模型&lt;/font&gt;&lt;/b&gt;" style="text;html=1;align=center;verticalAlign=middle;whiteSpace=wrap;rounded=0;" vertex="1" parent="1">
          <mxGeometry x="810" y="797" width="120" height="30" as="geometry" />
        </mxCell>
        <mxCell id="RHRyWqg5JXPaywLJchGg-6" value="&lt;b&gt;&lt;font style=&quot;font-size: 10px;&quot;&gt;宽度参数 = 3&lt;/font&gt;&lt;/b&gt;" style="text;html=1;align=left;verticalAlign=middle;whiteSpace=wrap;rounded=0;" vertex="1" parent="1">
          <mxGeometry x="1320" y="600" width="70" height="20" as="geometry" />
        </mxCell>
        <mxCell id="RHRyWqg5JXPaywLJchGg-7" value="&lt;b&gt;&lt;font style=&quot;font-size: 10px;&quot;&gt;宽度参数 = 12&lt;/font&gt;&lt;/b&gt;" style="text;html=1;align=left;verticalAlign=middle;whiteSpace=wrap;rounded=0;" vertex="1" parent="1">
          <mxGeometry x="1320" y="620" width="70" height="20" as="geometry" />
        </mxCell>
        <mxCell id="RHRyWqg5JXPaywLJchGg-8" value="&lt;b&gt;&lt;font style=&quot;font-size: 10px;&quot;&gt;宽度参数 = 64&lt;/font&gt;&lt;/b&gt;" style="text;html=1;align=left;verticalAlign=middle;whiteSpace=wrap;rounded=0;" vertex="1" parent="1">
          <mxGeometry x="1320" y="640" width="70" height="20" as="geometry" />
        </mxCell>
        <mxCell id="RHRyWqg5JXPaywLJchGg-11" value="&lt;font style=&quot;font-size: 30px;&quot;&gt;&lt;b&gt;测试误差&lt;/b&gt;&lt;/font&gt;" style="text;html=1;align=center;verticalAlign=middle;whiteSpace=wrap;rounded=0;" vertex="1" parent="1">
          <mxGeometry x="660" y="765.5" width="60" height="30" as="geometry" />
        </mxCell>
        <mxCell id="RHRyWqg5JXPaywLJchGg-12" value="&lt;span style=&quot;font-size: 30px;&quot;&gt;&lt;b&gt;训练轮次&lt;/b&gt;&lt;/span&gt;" style="text;html=1;align=center;verticalAlign=middle;whiteSpace=wrap;rounded=0;" vertex="1" parent="1">
          <mxGeometry x="990" y="960" width="140" height="30" as="geometry" />
        </mxCell>
      </root>
    </mxGraphModel>
  </diagram>
  <diagram id="JJn4toK4BSbnB76XuOrk" name="decision_tree">
    <mxGraphModel dx="1158" dy="699" grid="1" gridSize="10" guides="1" tooltips="1" connect="1" arrows="1" fold="1" page="1" pageScale="1" pageWidth="1169" pageHeight="827" math="0" shadow="0">
      <root>
        <mxCell id="0" />
        <mxCell id="1" parent="0" />
        <mxCell id="g0euyixHXt65xJ6-KHrr-5" style="rounded=0;orthogonalLoop=1;jettySize=auto;html=1;" parent="1" source="g0euyixHXt65xJ6-KHrr-1" target="g0euyixHXt65xJ6-KHrr-3" edge="1">
          <mxGeometry relative="1" as="geometry" />
        </mxCell>
        <mxCell id="g0euyixHXt65xJ6-KHrr-7" value="&lt;font style=&quot;font-size: 11px;&quot;&gt;是&lt;/font&gt;" style="edgeLabel;html=1;align=center;verticalAlign=middle;resizable=0;points=[];fontSize=15;" parent="g0euyixHXt65xJ6-KHrr-5" vertex="1" connectable="0">
          <mxGeometry x="-0.1612" y="-1" relative="1" as="geometry">
            <mxPoint as="offset" />
          </mxGeometry>
        </mxCell>
        <mxCell id="g0euyixHXt65xJ6-KHrr-6" style="rounded=0;orthogonalLoop=1;jettySize=auto;html=1;exitX=1;exitY=1;exitDx=0;exitDy=0;" parent="1" source="g0euyixHXt65xJ6-KHrr-1" target="g0euyixHXt65xJ6-KHrr-4" edge="1">
          <mxGeometry relative="1" as="geometry" />
        </mxCell>
        <mxCell id="g0euyixHXt65xJ6-KHrr-8" value="&lt;font style=&quot;font-size: 11px;&quot;&gt;否&lt;/font&gt;" style="edgeLabel;html=1;align=center;verticalAlign=middle;resizable=0;points=[];fontSize=15;" parent="g0euyixHXt65xJ6-KHrr-6" vertex="1" connectable="0">
          <mxGeometry x="-0.0869" y="3" relative="1" as="geometry">
            <mxPoint x="-5" as="offset" />
          </mxGeometry>
        </mxCell>
        <mxCell id="g0euyixHXt65xJ6-KHrr-1" value="&lt;span style=&quot;font-size: 11px;&quot;&gt;&lt;b style=&quot;font-size: 11px;&quot;&gt;喜欢研究问题？&lt;/b&gt;&lt;/span&gt;" style="ellipse;html=1;aspect=fixed;fillColor=#d5e8d4;strokeColor=#82b366;fontSize=11;whiteSpace=wrap;" parent="1" vertex="1">
          <mxGeometry x="480" y="240" width="80" height="80" as="geometry" />
        </mxCell>
        <mxCell id="g0euyixHXt65xJ6-KHrr-10" style="rounded=0;orthogonalLoop=1;jettySize=auto;html=1;" parent="1" source="g0euyixHXt65xJ6-KHrr-3" target="g0euyixHXt65xJ6-KHrr-9" edge="1">
          <mxGeometry relative="1" as="geometry" />
        </mxCell>
        <mxCell id="g0euyixHXt65xJ6-KHrr-11" value="&lt;font style=&quot;font-size: 11px;&quot;&gt;是&lt;/font&gt;" style="edgeLabel;html=1;align=center;verticalAlign=middle;resizable=0;points=[];" parent="g0euyixHXt65xJ6-KHrr-10" vertex="1" connectable="0">
          <mxGeometry x="-0.0806" y="1" relative="1" as="geometry">
            <mxPoint as="offset" />
          </mxGeometry>
        </mxCell>
        <mxCell id="g0euyixHXt65xJ6-KHrr-13" style="rounded=0;orthogonalLoop=1;jettySize=auto;html=1;" parent="1" source="g0euyixHXt65xJ6-KHrr-3" target="g0euyixHXt65xJ6-KHrr-12" edge="1">
          <mxGeometry relative="1" as="geometry" />
        </mxCell>
        <mxCell id="g0euyixHXt65xJ6-KHrr-14" value="&lt;font style=&quot;font-size: 11px;&quot;&gt;否&lt;/font&gt;" style="edgeLabel;html=1;align=center;verticalAlign=middle;resizable=0;points=[];" parent="g0euyixHXt65xJ6-KHrr-13" vertex="1" connectable="0">
          <mxGeometry x="-0.0733" y="1" relative="1" as="geometry">
            <mxPoint x="-3" y="-1" as="offset" />
          </mxGeometry>
        </mxCell>
        <mxCell id="g0euyixHXt65xJ6-KHrr-3" value="励志成为大学教授？" style="ellipse;aspect=fixed;fillColor=#d5e8d4;strokeColor=#82b366;fontSize=11;align=center;html=1;whiteSpace=wrap;fontStyle=1" parent="1" vertex="1">
          <mxGeometry x="400" y="320" width="80" height="80" as="geometry" />
        </mxCell>
        <mxCell id="g0euyixHXt65xJ6-KHrr-4" value="&lt;b&gt;&lt;font style=&quot;font-size: 20px;&quot;&gt;别读&lt;/font&gt;&lt;/b&gt;" style="ellipse;whiteSpace=wrap;html=1;aspect=fixed;fillColor=#ffe6cc;strokeColor=#d79b00;" parent="1" vertex="1">
          <mxGeometry x="560" y="320" width="80" height="80" as="geometry" />
        </mxCell>
        <mxCell id="g0euyixHXt65xJ6-KHrr-9" value="&lt;span style=&quot;font-size: 20px;&quot;&gt;&lt;b&gt;读&lt;/b&gt;&lt;/span&gt;" style="ellipse;whiteSpace=wrap;html=1;aspect=fixed;fillColor=#ffe6cc;strokeColor=#d79b00;" parent="1" vertex="1">
          <mxGeometry x="320" y="400" width="80" height="80" as="geometry" />
        </mxCell>
        <mxCell id="6XQKcCxWpzdXrOYnq8MA-2" style="rounded=0;orthogonalLoop=1;jettySize=auto;html=1;entryX=1;entryY=0;entryDx=0;entryDy=0;" edge="1" parent="1" source="g0euyixHXt65xJ6-KHrr-12" target="6XQKcCxWpzdXrOYnq8MA-1">
          <mxGeometry relative="1" as="geometry" />
        </mxCell>
        <mxCell id="6XQKcCxWpzdXrOYnq8MA-3" value="是" style="edgeLabel;html=1;align=center;verticalAlign=middle;resizable=0;points=[];" vertex="1" connectable="0" parent="6XQKcCxWpzdXrOYnq8MA-2">
          <mxGeometry x="-0.2774" relative="1" as="geometry">
            <mxPoint as="offset" />
          </mxGeometry>
        </mxCell>
        <mxCell id="6XQKcCxWpzdXrOYnq8MA-5" style="rounded=0;orthogonalLoop=1;jettySize=auto;html=1;entryX=0;entryY=0;entryDx=0;entryDy=0;" edge="1" parent="1" source="g0euyixHXt65xJ6-KHrr-12" target="6XQKcCxWpzdXrOYnq8MA-4">
          <mxGeometry relative="1" as="geometry" />
        </mxCell>
        <mxCell id="6XQKcCxWpzdXrOYnq8MA-6" value="否" style="edgeLabel;html=1;align=center;verticalAlign=middle;resizable=0;points=[];" vertex="1" connectable="0" parent="6XQKcCxWpzdXrOYnq8MA-5">
          <mxGeometry x="-0.239" y="1" relative="1" as="geometry">
            <mxPoint as="offset" />
          </mxGeometry>
        </mxCell>
        <mxCell id="g0euyixHXt65xJ6-KHrr-12" value="&lt;b style=&quot;font-size: 11px;&quot;&gt;&lt;font style=&quot;font-size: 11px;&quot;&gt;钱途很重要？&lt;/font&gt;&lt;/b&gt;" style="ellipse;whiteSpace=wrap;html=1;aspect=fixed;fillColor=#d5e8d4;strokeColor=#82b366;fontSize=11;" parent="1" vertex="1">
          <mxGeometry x="480" y="400" width="80" height="80" as="geometry" />
        </mxCell>
        <mxCell id="6XQKcCxWpzdXrOYnq8MA-1" value="&lt;b&gt;&lt;font style=&quot;font-size: 20px;&quot;&gt;别读&lt;/font&gt;&lt;/b&gt;" style="ellipse;whiteSpace=wrap;html=1;aspect=fixed;fillColor=#ffe6cc;strokeColor=#d79b00;" vertex="1" parent="1">
          <mxGeometry x="400" y="480" width="80" height="80" as="geometry" />
        </mxCell>
        <mxCell id="6XQKcCxWpzdXrOYnq8MA-8" style="rounded=0;orthogonalLoop=1;jettySize=auto;html=1;" edge="1" parent="1" source="6XQKcCxWpzdXrOYnq8MA-4" target="6XQKcCxWpzdXrOYnq8MA-7">
          <mxGeometry relative="1" as="geometry" />
        </mxCell>
        <mxCell id="6XQKcCxWpzdXrOYnq8MA-9" value="否" style="edgeLabel;html=1;align=center;verticalAlign=middle;resizable=0;points=[];" vertex="1" connectable="0" parent="6XQKcCxWpzdXrOYnq8MA-8">
          <mxGeometry x="-0.1366" y="1" relative="1" as="geometry">
            <mxPoint as="offset" />
          </mxGeometry>
        </mxCell>
        <mxCell id="6XQKcCxWpzdXrOYnq8MA-11" style="rounded=0;orthogonalLoop=1;jettySize=auto;html=1;" edge="1" parent="1" source="6XQKcCxWpzdXrOYnq8MA-4" target="6XQKcCxWpzdXrOYnq8MA-10">
          <mxGeometry relative="1" as="geometry" />
        </mxCell>
        <mxCell id="6XQKcCxWpzdXrOYnq8MA-12" value="是" style="edgeLabel;html=1;align=center;verticalAlign=middle;resizable=0;points=[];" vertex="1" connectable="0" parent="6XQKcCxWpzdXrOYnq8MA-11">
          <mxGeometry x="-0.1878" y="1" relative="1" as="geometry">
            <mxPoint as="offset" />
          </mxGeometry>
        </mxCell>
        <mxCell id="6XQKcCxWpzdXrOYnq8MA-4" value="&lt;b style=&quot;font-size: 11px;&quot;&gt;&lt;font style=&quot;font-size: 11px;&quot;&gt;无畏重压和竞争？&lt;/font&gt;&lt;/b&gt;" style="ellipse;whiteSpace=wrap;html=1;aspect=fixed;fillColor=#d5e8d4;strokeColor=#82b366;fontSize=11;" vertex="1" parent="1">
          <mxGeometry x="560" y="480" width="80" height="80" as="geometry" />
        </mxCell>
        <mxCell id="6XQKcCxWpzdXrOYnq8MA-7" value="&lt;b&gt;&lt;font style=&quot;font-size: 20px;&quot;&gt;别读&lt;/font&gt;&lt;/b&gt;" style="ellipse;whiteSpace=wrap;html=1;aspect=fixed;fillColor=#ffe6cc;strokeColor=#d79b00;" vertex="1" parent="1">
          <mxGeometry x="640" y="560" width="80" height="80" as="geometry" />
        </mxCell>
        <mxCell id="6XQKcCxWpzdXrOYnq8MA-14" style="rounded=0;orthogonalLoop=1;jettySize=auto;html=1;" edge="1" parent="1" source="6XQKcCxWpzdXrOYnq8MA-10" target="6XQKcCxWpzdXrOYnq8MA-13">
          <mxGeometry relative="1" as="geometry" />
        </mxCell>
        <mxCell id="6XQKcCxWpzdXrOYnq8MA-15" value="否" style="edgeLabel;html=1;align=center;verticalAlign=middle;resizable=0;points=[];" vertex="1" connectable="0" parent="6XQKcCxWpzdXrOYnq8MA-14">
          <mxGeometry x="-0.1024" relative="1" as="geometry">
            <mxPoint as="offset" />
          </mxGeometry>
        </mxCell>
        <mxCell id="6XQKcCxWpzdXrOYnq8MA-17" style="rounded=0;orthogonalLoop=1;jettySize=auto;html=1;entryX=1;entryY=0;entryDx=0;entryDy=0;" edge="1" parent="1" source="6XQKcCxWpzdXrOYnq8MA-10" target="6XQKcCxWpzdXrOYnq8MA-16">
          <mxGeometry relative="1" as="geometry" />
        </mxCell>
        <mxCell id="6XQKcCxWpzdXrOYnq8MA-18" value="是" style="edgeLabel;html=1;align=center;verticalAlign=middle;resizable=0;points=[];" vertex="1" connectable="0" parent="6XQKcCxWpzdXrOYnq8MA-17">
          <mxGeometry x="-0.1195" y="-1" relative="1" as="geometry">
            <mxPoint as="offset" />
          </mxGeometry>
        </mxCell>
        <mxCell id="6XQKcCxWpzdXrOYnq8MA-10" value="&lt;b&gt;被狠狠评判也能接受？&lt;/b&gt;" style="ellipse;whiteSpace=wrap;html=1;aspect=fixed;fillColor=#d5e8d4;strokeColor=#82b366;fontSize=11;" vertex="1" parent="1">
          <mxGeometry x="480" y="560" width="80" height="80" as="geometry" />
        </mxCell>
        <mxCell id="6XQKcCxWpzdXrOYnq8MA-13" value="&lt;b&gt;&lt;font style=&quot;font-size: 20px;&quot;&gt;别读&lt;/font&gt;&lt;/b&gt;" style="ellipse;whiteSpace=wrap;html=1;aspect=fixed;fillColor=#ffe6cc;strokeColor=#d79b00;" vertex="1" parent="1">
          <mxGeometry x="560" y="640" width="80" height="80" as="geometry" />
        </mxCell>
        <mxCell id="6XQKcCxWpzdXrOYnq8MA-16" value="&lt;b&gt;对清晰目标和即时反馈很在意？&lt;/b&gt;" style="ellipse;whiteSpace=wrap;html=1;aspect=fixed;fillColor=#d5e8d4;strokeColor=#82b366;fontSize=11;" vertex="1" parent="1">
          <mxGeometry x="400" y="640" width="80" height="80" as="geometry" />
        </mxCell>
        <mxCell id="6XQKcCxWpzdXrOYnq8MA-19" style="rounded=0;orthogonalLoop=1;jettySize=auto;html=1;exitX=1;exitY=1;exitDx=0;exitDy=0;" edge="1" parent="1" target="6XQKcCxWpzdXrOYnq8MA-23" source="6XQKcCxWpzdXrOYnq8MA-16">
          <mxGeometry relative="1" as="geometry">
            <mxPoint x="468" y="710" as="sourcePoint" />
          </mxGeometry>
        </mxCell>
        <mxCell id="6XQKcCxWpzdXrOYnq8MA-20" value="否" style="edgeLabel;html=1;align=center;verticalAlign=middle;resizable=0;points=[];" vertex="1" connectable="0" parent="6XQKcCxWpzdXrOYnq8MA-19">
          <mxGeometry x="-0.1024" relative="1" as="geometry">
            <mxPoint as="offset" />
          </mxGeometry>
        </mxCell>
        <mxCell id="6XQKcCxWpzdXrOYnq8MA-21" style="rounded=0;orthogonalLoop=1;jettySize=auto;html=1;entryX=1;entryY=0;entryDx=0;entryDy=0;exitX=0;exitY=1;exitDx=0;exitDy=0;" edge="1" parent="1" target="6XQKcCxWpzdXrOYnq8MA-24" source="6XQKcCxWpzdXrOYnq8MA-16">
          <mxGeometry relative="1" as="geometry">
            <mxPoint x="412" y="710" as="sourcePoint" />
          </mxGeometry>
        </mxCell>
        <mxCell id="6XQKcCxWpzdXrOYnq8MA-22" value="是" style="edgeLabel;html=1;align=center;verticalAlign=middle;resizable=0;points=[];" vertex="1" connectable="0" parent="6XQKcCxWpzdXrOYnq8MA-21">
          <mxGeometry x="-0.1195" y="-1" relative="1" as="geometry">
            <mxPoint as="offset" />
          </mxGeometry>
        </mxCell>
        <mxCell id="6XQKcCxWpzdXrOYnq8MA-26" style="rounded=0;orthogonalLoop=1;jettySize=auto;html=1;entryX=1;entryY=0;entryDx=0;entryDy=0;" edge="1" parent="1" source="6XQKcCxWpzdXrOYnq8MA-23" target="6XQKcCxWpzdXrOYnq8MA-25">
          <mxGeometry relative="1" as="geometry" />
        </mxCell>
        <mxCell id="6XQKcCxWpzdXrOYnq8MA-27" value="是" style="edgeLabel;html=1;align=center;verticalAlign=middle;resizable=0;points=[];" vertex="1" connectable="0" parent="6XQKcCxWpzdXrOYnq8MA-26">
          <mxGeometry x="-0.1086" relative="1" as="geometry">
            <mxPoint as="offset" />
          </mxGeometry>
        </mxCell>
        <mxCell id="6XQKcCxWpzdXrOYnq8MA-29" style="rounded=0;orthogonalLoop=1;jettySize=auto;html=1;" edge="1" parent="1" source="6XQKcCxWpzdXrOYnq8MA-23" target="6XQKcCxWpzdXrOYnq8MA-28">
          <mxGeometry relative="1" as="geometry" />
        </mxCell>
        <mxCell id="6XQKcCxWpzdXrOYnq8MA-30" value="否" style="edgeLabel;html=1;align=center;verticalAlign=middle;resizable=0;points=[];" vertex="1" connectable="0" parent="6XQKcCxWpzdXrOYnq8MA-29">
          <mxGeometry x="-0.2576" y="-1" relative="1" as="geometry">
            <mxPoint as="offset" />
          </mxGeometry>
        </mxCell>
        <mxCell id="6XQKcCxWpzdXrOYnq8MA-23" value="&lt;b style=&quot;font-size: 11px;&quot;&gt;996小菜一碟？&lt;/b&gt;" style="ellipse;whiteSpace=wrap;html=1;aspect=fixed;fillColor=#d5e8d4;strokeColor=#82b366;" vertex="1" parent="1">
          <mxGeometry x="480" y="720" width="80" height="80" as="geometry" />
        </mxCell>
        <mxCell id="6XQKcCxWpzdXrOYnq8MA-24" value="&lt;b style=&quot;font-size: 12px;&quot;&gt;&lt;font style=&quot;font-size: 20px;&quot;&gt;别读&lt;/font&gt;&lt;/b&gt;" style="ellipse;whiteSpace=wrap;html=1;aspect=fixed;fillColor=#ffe6cc;strokeColor=#d79b00;fontSize=11;" vertex="1" parent="1">
          <mxGeometry x="320" y="720" width="80" height="80" as="geometry" />
        </mxCell>
        <mxCell id="6XQKcCxWpzdXrOYnq8MA-25" value="&lt;b style=&quot;font-size: 12px;&quot;&gt;&lt;font style=&quot;font-size: 20px;&quot;&gt;读&lt;/font&gt;&lt;/b&gt;" style="ellipse;whiteSpace=wrap;html=1;aspect=fixed;fillColor=#ffe6cc;strokeColor=#d79b00;fontSize=11;" vertex="1" parent="1">
          <mxGeometry x="400" y="800" width="80" height="80" as="geometry" />
        </mxCell>
        <mxCell id="6XQKcCxWpzdXrOYnq8MA-28" value="&lt;b style=&quot;font-size: 12px;&quot;&gt;&lt;font style=&quot;font-size: 20px;&quot;&gt;别读&lt;/font&gt;&lt;/b&gt;" style="ellipse;whiteSpace=wrap;html=1;aspect=fixed;fillColor=#ffe6cc;strokeColor=#d79b00;fontSize=11;" vertex="1" parent="1">
          <mxGeometry x="560" y="800" width="80" height="80" as="geometry" />
        </mxCell>
      </root>
    </mxGraphModel>
  </diagram>
</mxfile>
